<svg xmlns="http://www.w3.org/2000/svg" viewBox="121.12 380.62 809.27 349.55"><path fill="#d32c2a" d="M733.75 384.27c.66-1.64 2.07-2.68 3.5-3.63l.04 2.26c.12-.52.35-1.56.46-2.07 1.56 1.05 3.12 2.15 4.69 3.21 1.03-1.73 2.78-2.4 4.71-2.55.65 4.14-3.08 6.17-5.46 8.77l4.73-.16c.06 1.52.09 3.05.04 4.58.13 2.18 1.27 4.87-1.49 5.82-1.08-2.35-.78-5.83-3.62-6.87-1.5-1.21-3.58-.6-4.81.66-1.34.23-2.01 1.37-1.92 2.63-.1 2.82-1.07 5.86.5 8.46 1.64-.07 2.46.59 2.46 1.97.55.39 1.64 1.17 2.18 1.56.11-.63.33-1.9.43-2.53.29.29.87.86 1.16 1.15 1.24-1.7 3.06-2.86 5.2-2.99l.85 1.5c.34.15 1.02.47 1.36.63-.34.14-1.02.43-1.37.57.54 3.95-3.8 4.8-6.66 5.78-3.33.54-6.63-1.6-8.11-4.52-1.1-1.86-1.5-4.31-3.57-5.41.51.19 1.55.56 2.07.74-.1-1.71-.22-3.42-.37-5.11.72-3.1 2.22-6.17 4.88-8.03 1.74-.85 3.79-.7 5.67-1.09-1.66-.91-3.32-1.79-4.99-2.66-.85-.9-1.71-1.79-2.56-2.67zm-224.79 5.1c4.75-1.04 7.86 3.14 9.57 6.94-.14.26-.41.78-.55 1.04 1.68 3.71 1.2 7.83-.22 11.54-1.41 1.24-2.89 2.39-4.38 3.53-2.91.07-6.49.19-8.39-2.45-2.15-3.53-2.9-7.77-2.46-11.86 1.16-3.56 3.05-6.86 6.43-8.74m1.49 1.65l-2.03 1.39c-.9 2.15-1.94 4.25-3.03 6.31.73 3.01 1.86 5.93 3.4 8.62 1.32.84 3.04.68 4.53 1.1 3.52-2.22 4.59-6.6 4.18-10.52-.31-1.6-.58-3.19-.86-4.79-2.04-.8-4.08-1.58-6.19-2.11zm97.99-1.56c3.11-.64 6.19.73 7.65 3.59-2.25-.83-4.48-1.72-6.86-2-1.87 2.2-2.92 4.91-4.2 7.46.39 3.25 1.81 6.24 3.42 9.05 1.49.47 3.07.57 4.62.83 2.34-1.77 3.37-4.49 4.09-7.24-.46-2.46-.56-4.97-.49-7.47.84 1.53 1.43 3.14.44 4.81l1.33-.34c-.16 3.09.61 6.39-.82 9.29-.63 2.31-2.74 3.57-4.56 4.87-2.63.15-5.63.4-7.76-1.45-5.29-6.17-4.23-17.31 3.14-21.4zm-144.01 3.85c3.29-4.4 9.26-2.63 13.89-2.69.24 1.29.48 2.58.72 3.88.54-.31 1.61-.94 2.15-1.26-1.11 1.53-2.21 3.05-3.24 4.63-.98-1.58-1.78-3.4-3.46-4.37-1.84-1.37-4.24-.55-6.34-.59.02.78.05 2.33.07 3.11l-2.48-.66c2.74 5.01 9.41 3.38 13.69 6.25.32 2.43.48 4.88.89 7.31 1.02-.21 2-.53 2.95-.97-.77 1.1-1.52 2.21-2.25 3.33-1.5.42-3 .85-4.47 1.34-2.9.41-5.94 1.09-8.64-.44-1.13.22-2.26.6-3.41.47-1.37-2.44-.64-5.38-.81-8.05 2.86 1.17 4.75 4.41 8.19 3.96 2.67.76 4.54-1.81 5.79-3.75-1.24-1.04-2.58-1.96-4.13-2.45-2.04-.71-4.17-1.21-6.34-.87-2.16-2.03-4.43-5.23-2.77-8.18z"/><path fill="#d32c2a" d="M483.95 391.23c1.48-.4 3.03-.48 4.55-.68 3.71.66 7.69-.27 11.09 1.82.67 1.78 1.27 3.58 1.86 5.4-.93 2.11-1.82 4.33-3.77 5.71-2.53.29-5.03.73-7.54.98.1 1 .21 2 .33 3 1.77 1.3 3.57 2.55 5.41 3.76-3.47 2.59-7.98 1.64-12.01 1.82-.28-.9-.55-1.79-.81-2.68 1.34-.54 2.68-1.07 4.05-1.56-.07-5.22.36-10.5-.57-15.66-.6.33-1.81 1.01-2.41 1.34-.27-1.11-2.06-2.72-.18-3.25m5.66 3.34c0 2.12.54 4.2.8 6.31 2.54.08 5.09-.19 7.56-.84.16-.81.5-2.44.66-3.26-1.4-2.09-3.63-3.26-5.74-4.48-1.03.8-2.68 1.03-3.28 2.27zm32.36-3.44c4.92-1.02 10.65-2 15.19.7 1.19 2.07 1.89 4.34 1.74 6.76-1.02 1.15-2.01 2.31-3.01 3.46.81 1.89 1.62 3.78 2.47 5.65 1.48 1.11 2.76 2.44 4.06 3.77-2.24.79-4.54.65-6.78-.01-1.7-2.97-.7-7.34-4.32-8.91-.88.04-2.65.13-3.53.17-.05 1.9-.17 3.85.31 5.73 1.44.88 4.77 1.57 3.38 3.93-3.15.64-6.41.44-9.57.03-.31-.62-.93-1.85-1.24-2.46 1.2-.2 2.42-.37 3.64-.53.98-5.04.17-10.19.41-15.27-.32-1.6-5.24-1.31-2.75-3.02m5.32 2.1c-.41 2.18.37 4.39.79 6.53 2.03.09 4.08.1 6.1-.24.4-.48 1.2-1.43 1.6-1.91 0-1.12.01-2.23.03-3.34-.87-.56-1.72-1.11-2.56-1.66-1.99.19-4.08-.09-5.96.62z"/><path fill="#d32c2a" d="M541.42 390.56c5.33-.62 10.73-.51 16.07-.03.09 3.52 1.97 7.54-.52 10.6-1.63-2.33-1.53-5.23-2.31-7.86-1.12.03-2.23.05-3.33.07-.01 5.32-.56 10.65.09 15.97 1.42-.65 2-1.8 1.54-3.35h.94c-.05.69-.17 2.07-.23 2.76 1.63.95 3.23 1.95 4.85 2.92-5.17 1.41-11.07 2.34-16.16.26.88-1 1.78-1.99 2.69-2.96.15.53.46 1.59.61 2.11l-.19-1.72c.64.03 1.91.1 2.55.13.47-3.53.48-7.13-.02-10.66-.23-1.65-.36-3.32-.41-4.98-.58-.19-1.72-.59-2.29-.78-.86 2.43-1.27 5.01-2.28 7.39-.46-.11-1.37-.34-1.82-.45-.17-3.14-.08-6.29.22-9.42zm19.57 2.64c3.19-4.02 8.81-2.81 13.25-2.42 1.12 2.05 3.02 3.2 5.4 2.86-1.29-3.65 3.44-2.58 5.38-3.55 1.15.77 2.29 1.55 3.39 2.42 1.53-.54 3.07-1.1 4.6-1.65 1.49.04 2.98.06 4.49.07.77.55 1.56 1.08 2.36 1.62-5.26-.19-8.27 4.49-11.05 8.2l.96.19.8-1.61c.19 1.33.37 2.67.54 4.01.56-.1 1.68-.31 2.24-.42-.25.5-.77 1.49-1.02 1.98.89.83 1.77 1.66 2.67 2.51.53-.01 1.58-.02 2.11-.03 1.6 1.91 3.47 3.67 6 4.18-.35.25-1.04.76-1.39 1.02-3.24.1-6.49.83-9.71.28-3.95-.91-7.94.69-11.92-.03-.75-1.17-1.32-2.43-1.97-3.65l-.48 1.98c-3.9 1.3-8.21 2.76-12.29 1.42-1.63-.8-3.86 1.16-4.95-.88-.3-2.3-.21-4.63-.25-6.94 2.07.32 3.25 2.11 4.89 3.21 1.57.37 3.2.54 4.79.89 1.07-.68 2.14-1.37 3.23-2.05.23-.8.46-1.6.71-2.39-.49-.39-1.45-1.17-1.93-1.55-2.64-.69-5.27-1.72-8.05-1.46-2.36-1.9-4.52-5.27-2.8-8.21m1.68 3.85c4.08 2.26 8.88 2.39 13.08 4.36.69 2.5.8 5.1.82 7.69.89-.4 2.65-1.2 3.53-1.6-.16.64-.49 1.91-.65 2.54l2.23-1.36c1.5-3.74.28-7.95 1.13-11.79 2.4-.83 3.22.08 2.47 2.72 2.23-2.01 4.85-3.85 5.85-6.83-1.8.1-3.59.29-5.36.53-.67 1.41-1.25 2.98-2.95 3.39-.07-.81-.22-2.42-.29-3.22-2.29.27-4.32 1.66-6.76 1.39-.12.6-.35 1.79-.47 2.39-.43.07-1.28.2-1.7.27-.15-.65-.44-1.95-.58-2.6-1.23-.79-2.45-1.58-3.66-2.37-1.48.09-2.94.28-4.38.56-.98 1.17-1.63 2.58-2.31 3.93m22.68 11.17c1.43.42 2.9.3 4.38.07-.13.75-.38 2.25-.51 3 .26-.48.79-1.42 1.06-1.89l1.65.16c-1.13-.89-2.24-1.77-3.34-2.67-.61-1.18-.7-3.37-2.5-3.3-1.37 1.05-.33 3.17-.74 4.63zm114.87-18.09c3.56-.34 7.1.17 10.66.27 1.25.28 2.51.56 3.78.83-.54.45-1.61 1.37-2.15 1.83-.3-.28-.9-.83-1.21-1.11-1.32.77-1.88 1.9-1.7 3.39-.58-.54-1.75-1.61-2.33-2.15.04 3.81-.06 7.63.27 11.43l1.52-.21c-.27-.77-.8-2.33-1.07-3.11 1.98.45 1.8 2.38 1.97 3.98-1.2.7-2.36 1.43-3.42 2.3 1.33-.39 2.67-.78 4.01-1.19-1.24 5.33-7.02 6.46-11.64 7.05-2.83-.86-4.78-2.98-6.15-5.49.09-2.04.17-4.08.29-6.11 3.18-1.94 6.56.76 7.5 3.88.99.02 2 .05 3.01.09.51-4.18 1.02-8.44.24-12.62-1.29-.16-2.58-.31-3.86-.45l.28-2.61zm48.06 3.05c.17-3.03 3.63-2.31 5.73-3.03 1.31.71 2.63 1.46 3.68 2.56-2.97-.4-3.36 2.72-5.5 3.71-.15-2.42-1.45-3.57-3.91-3.24z"/><path fill="#d32c2a" d="M771.72 392.78c-1.44-2.14 1.79-2.49 3.1-3 2.61.67 5.42.93 8.02-.02 1.07.6 4.28.15 3.59 2.21-1.48 1.88-4.26 1.01-6.31 1.08l.64 2c-.12 4.64-1.41 10.07 1.34 14.14.38-1.17.77-2.34 1.18-3.5.14.75.44 2.24.59 2.99 2 .28 3.62 1.49 5.23 2.62-.41.05-1.22.15-1.63.19-2.07 1.79-4.86 1.25-7.36 1.41-4.68.34-9.37-.7-14.04.02-2.69.44-5.36-.16-8.02-.43-2.95.34-5.94.73-8.9.33-2.55-1.35.25-3.66 1.8-4.33.84-3.93.25-7.98.87-11.9 2.48-.44 3.29.58 2.42 3.06 1.92-2.25 6.69-4.17 4.84-7.79.96-.34 1.94-.67 2.93-.99 1.44.03 2.89.05 4.35.06.82.53 1.66 1.07 2.51 1.59-5.34-.07-8.54 4.62-11.18 8.57l2.29-1.41c-.01.92-.04 2.76-.05 3.68.6-.11 1.8-.34 2.4-.45-.25.5-.74 1.51-.99 2.01.89.83 1.77 1.66 2.68 2.5.52-.01 1.56-.03 2.08-.05 1.6 1.87 5.12 6.08 6.31 1.5 1.59-.2 3.19-.36 4.81-.45.27-5.01.6-10.05.29-15.06-1.93-.28-3.88-.3-5.79-.58m-17.36 15.46c1.44.38 2.9.27 4.39.07l-.56 2.95c.27-.47.82-1.39 1.1-1.86.41.04 1.22.13 1.63.17-1.12-.89-2.23-1.78-3.33-2.68-.62-1.18-.7-3.35-2.49-3.31-1.38 1.07-.37 3.17-.74 4.66zm49.29-15.15c.37-2.96 3.86-2.21 5.97-2.94 1.23.79 2.47 1.6 3.69 2.45-.75.2-2.25.61-3 .81-.68 1.55-2.7 5.03-3.2 1.31-.08-1.78-2.44-1.04-3.46-1.63zm22.66-.2c.82-4.39 6.27-1.98 9.3-2.98 1.48 1.05 2.94 3.03 4.9 1.52-1.09 1.19-2.59 1.7-4.14 1.94-.14.97-.31 1.94-.49 2.91l-.88-2.87c-.36.15-1.09.45-1.45.61l-.18 2.77c.36.62 1.08 1.88 1.45 2.5-.48.33-1.44.97-1.92 1.3l1.61.04c.04 2.64.19 5.27.17 7.91 2.23.43 4.53.37 6.78.71.3-1.62 1.03-3.32.17-4.9.16.02.46.07.61.09-.08-1.58.8-2.25 2.23-2.19-.07 3.07.06 6.19 1.38 9.03.25-1.56.48-3.12.7-4.68.27.99.56 1.97.86 2.97-.22.51-.67 1.53-.89 2.04-7.05.95-14.26 1.67-21.35.68l-.25-.39c1.52-1.74 4.11-2.2 6.11-3.29.05-5.17.12-10.39-.63-15.52l-4.09-.2zm21.52-1.76c3.18-1.89 7.1-.92 9.93 1.17-1.42.37-3.26-.1-4.3 1.06.38 4.2.14 8.45.71 12.63.16 1.63 1.77 2.53 2.9 3.49-1.25-1.97-3-4.43-.58-6.33-.13-.83-.38-2.51-.51-3.35.53.82 1.07 1.65 1.6 2.49-.32 2.57-.06 5.21 2.37 6.7.6-1.06 1.22-2.11 1.85-3.15.16-3.98.24-7.97.7-11.92-1.02-.82-2.09-1.63-3.1-2.42 2.04-1.13 4.32-1.52 6.64-1.45l.52 1.31c-.74 1.12-2.3 2.07-1.98 3.6.26 5.27 1.23 10.6-.09 15.82.97-.86 1.96-1.71 2.96-2.54.15-1.36.3-2.72.42-4.08.14-.2.42-.6.55-.79.31.51.93 1.54 1.24 2.05-.66 2.88-2.06 6.06-5.13 6.98-3.08.6-6.25.46-9.37.56-1.4-1.31-3.09-2.42-3.93-4.19-.88-4.98-.45-10.05-.68-15.06-.95-.84-2.38-1.23-2.72-2.58z"/><path fill="#d32c2a" d="M868.95 390.61c4.48-.78 9.05-.21 13.54.16 1.73.04 2.74 1.56 3.94 2.59.17 1.21.34 2.43.53 3.65-.87 1.43-.95 2.98-.15 4.47 1.41-.06 2.83-.12 4.25-.2-.01.28-.03.83-.03 1.11-1.11-.27-2.21-.54-3.3-.79 1.3 2.9.82 6.02-.12 8.94 1.15-.59 2.3-1.18 3.47-1.76.44-.92.9-1.82 1.38-2.72.15.42.47 1.25.62 1.67-1.33.64-1.94 1.7-1.83 3.16-5.68 1.16-11.5 1.03-17.2 1.94-1.82.43-3.46-.45-4.83-1.52 1.05-1.16 2.16-2.27 3.29-3.37-.14-4.58-.19-9.16-.2-13.74-1.26-1.06-2.71-2.02-3.36-3.59m6.4 2.69c-.43 1.97-.42 3.99-.51 6 3.25.26 6.73.71 9.58-1.3.31-.85.93-2.56 1.23-3.41-2.31-3.42-7.02-2.71-10.3-1.29m.23 9.41c-.01 1.66-.09 3.32-.16 4.99l1.32-.51c-.05.6-.16 1.8-.21 2.39.69-.55 2.06-1.66 2.74-2.21-.63 2.19 1.34 2.37 2.78 2.87 2.5-1.15 3.99-3.26 4.04-6.05-.71-.83-1.41-1.66-2.09-2.49-2.84.07-5.67.35-8.42 1.01zm-240.71-10.73c1.94-.96 4.08-1.25 6.23-1.35 3.07.6 6.42-.38 9.33.99 2.55.97 2.54 4.15 3.8 6.22.83-.27 1.43-.86 1.8-1.78-.11.51-.35 1.53-.47 2.04-.56.26-1.7.78-2.27 1.04-.62 1.87-1.7 3.46-3.44 4.43-2.53.23-5.03.71-7.55 1.03.38 1.07.75 2.14 1.13 3.23 1.5 1.13 3.31 1.95 4.53 3.42-.56.42-1.67 1.25-2.23 1.66-3.46-.65-8.56 1.79-10.58-2.03 1.56-.9 3.14-1.76 4.72-2.63-.61-5.03.06-10.11-.75-15.11-.53.29-1.58.89-2.11 1.18-.72-.78-1.43-1.57-2.14-2.34m7.52 1.92c-.06.5-.19 1.49-.26 1.99.23 1.58.42 3.17.6 4.77 2.69.44 5.45.18 7.97-.92.06-.7.19-2.1.26-2.79-.49-.81-.97-1.62-1.44-2.41-1.51-.68-2.99-1.37-4.46-2.09-.67.36-2 1.09-2.67 1.45z"/><path fill="#d32c2a" d="M655.86 391.15c5.52-.29 11.17-.89 16.62.34-.04 2.57.5 5.25-.45 7.73-1.28-1.77-1.88-3.84-2.4-5.92-2.41-.32-4.85.06-7.26.04-.61 1.83-.72 3.79-.69 5.71 1.09 1.04 2.76.59 4.13.89.11-.78.32-2.33.42-3.11.43.25 1.29.73 1.72.98-.33 2.44-.46 4.92-.06 7.37-.4.2-1.22.61-1.63.81-.1-.77-.29-2.32-.38-3.1-1.24-.06-2.47-.11-3.68-.15-.23 2.39.43 4.66 1.33 6.85 2.29-.15 5.47 1.1 6.51-1.72.35-1.2.7-2.4 1.07-3.58.54.32 1.63.95 2.17 1.27.02 2.41-.19 4.85.45 7.21-6.16.31-12.34.42-18.47-.25.01-.48.03-1.43.05-1.9 1.38-.6 2.79-1.19 4.18-1.8.2-4.48.31-8.96.07-13.43.85-2.8-2.2-2.07-3.82-1.57l.12-2.67zm19.02.95c1.24-.7 2.62-1.11 4.05-1.23 2.01.55 3.05 2.52 4.54 3.83-.22.23-.65.69-.87.92.64 1.25 1.29 2.52 1.95 3.78 1.08 2.39 2.24 4.74 3.32 7.14-.07-4.07.68-8.14.11-12.2-1.16-.67-2.94-1.32-2.05-3 2.4.45 6.34-1.3 7.44 1.74-.78.05-2.34.16-3.11.22.08 1.4.17 2.81.26 4.22-.85 4.54-.03 9.14.27 13.69-.81.71-1.64 1.42-2.46 2.12-3.32-5.25-5.05-11.29-7.86-16.81-1.28 1.11-.49 2.14.52 3.07-.4.38-1.21 1.13-1.61 1.5l1.19 1.11c-1.19 2.84-1.18 7.9 2.7 8.4-.83 3.7-5.12 2.88-7.76 1.9-.02-.5-.05-1.51-.07-2.01.8-1.02 2.21-1.82 2.08-3.3.29-4.2-.01-8.42.03-12.62-1.06-.65-2.37-1.12-2.67-2.47zm45.14-.98c.51-.05 1.54-.14 2.05-.19 1.47 2.69 2.21 5.69 2.89 8.66-.64-.23-1.93-.68-2.57-.91-.4-1.06-1.14-1.75-2.21-2.08.79 2.34-1.07 4.15-1.13 6.36 1.14 1.99 3.42 0 4.72-.78-.39-.57-1.18-1.7-1.57-2.27 1.04-.02 2.09-.04 3.14-.04-.38 3.25 1.33 6.19 2.47 9.11 1.13.73 3.01 1.44 2.61 3.17-2.76.85-5.92.99-8.33-.85.84-1.11 3.15-1.52 2.79-3.33.52-2.18-2.78-1.27-3.93-1.84-1.1.36-2.2.73-3.29 1.09.14 1.8 1 3.39 2.42 4.52-2.48 1.57-5.48 1.26-8.24.93.29-1.53 1.33-2.52 2.67-3.21 2.21-6 3.09-12.42 5.51-18.34zm93.97 1.01c2.45-1.19 5.16-1.33 7.85-1.32.77.61 1.56 1.23 2.35 1.85-1.36.19-2.7.4-4.04.6-2.81 2.09-4.91 4.9-7.03 7.64l2.36-.76c-.63 2.13.22 3.44 2.47 3.2-.29.41-.89 1.22-1.18 1.62 1.38 1.26 2.81 2.55 4.81 2.61 1.05.97 2.11 1.92 3.17 2.93-2.09 4.35-7.75 2.29-11.49 1.82-2.89.83-6.07.98-8.97.27-2.14-1.78.99-3.26 2.25-4.26.58-3.79.32-7.63.7-11.42.72-.08 2.17-.23 2.9-.3-.1.76-.31 2.29-.41 3.05 1.4-1.22 2.75-2.51 4.12-3.78.99-1.3 2.7-2.71.14-3.75m-4.08 16.02c1.18.72 2.59.09 3.9.14.05.87.04 1.75-.03 2.63.62-.53 1.25-1.05 1.9-1.56-.41-1.48-1.52-2.43-2.91-2.94-.36-1.03-.81-2-1.35-2.91-2.31.03-1.6 3.04-1.51 4.64zm-101.76-13.16c2.04 1.6 1.37 4.32 1.5 6.54-1.35-1.9-1.34-4.31-1.5-6.54zm74.95 4.23c3.33.19-1.6 2.9 0 0zm-230.69 3.81c2.83-1.75.37 3.32 0 0zm339.94-.03c1.29.73 1.25 1.39-.11 1.98-1.28-.72-1.24-1.38.11-1.98zm-272.14 7.2c.58.61.58.61 0 0zm-101.87.95c2.68-1.92.55 3.32 0 0zm14.98.03c.42.66.42.66 0 0zm84.98.04c.64.58.64.58 0 0zm-71.01 6.99c.51.61.51.61 0 0zm-299.96 11.53c17.91-.14 35.85-.18 53.76.01 7.26 1.83 14.65 3.05 21.99 4.47-.49-.64-1.47-1.94-1.96-2.58 5.34-2.36 9.76 2.36 14.88 2.85 1.66-.29 3.28-.78 4.91-1.2-.91 4.29-6.05 4.49-9.13 6.61 23.11 1.1 46.23 2 69.37 2.42-3.01 1.88-6.69 1.66-9.98 2.71 1.57 3.32 5.41 1.31 8.21 1.47l-.28 1.62c.52.46 1.56 1.4 2.08 1.87 1.82-.54 3.6-1.14 5.55-1.06-1.43-.92-2.93-1.72-4.4-2.56 2.68-1.38 6.89-.64 7.77-4.28 3.68 1.74-.57 5.42-3.15 4.7l-.32 1.9c2.61-.18 5.21-.49 7.82-.66-1.79 2.71-5.27 2.57-8.04 3.47 6.27 3.52 13.89.82 20.23-1.23-.4 1.16-.81 2.32-1.24 3.48 2.51-1.35 5.03-2.69 7.71-3.67.09 3.92 5.04 2.59 7.34 1.54-2.2-.78-4.44-1.49-6.47-2.66 4.03-2.12 9.21-1.01 12.7-4.22.15 1.38.53 3.11 2.26 3.23 3.9.34 7.79-.67 11.6-1.42-2.75-1.05-7.34.05-7.6-3.95 4.01.19 8.09-2.68 11.87-.46 5.49 2.37 11.43-1.97 16.92.28 2.7 1.3 3.18 4.6 3.92 7.18-2.69-.08-5.25-.89-7.76-1.78-.64.66-1.27 1.32-1.9 1.99 2.31 2.05 5.51 2.58 8.48 2.88 3.23-1.81 6.5-3.73 8.93-6.59 2.4 3.35 6.47.41 9.28-.8-.3.61-.88 1.82-1.18 2.42 10.38-1.85 20.82-4.63 31.45-3.41 3.87-1 7.56-2.77 11.68-2.44-1.29-1.28-3-2.29-3.42-4.19 6.11-.09 12.77.74 17.93-3.36-.96.01-2.87.04-3.82.05 1.18-.96 2.15-2.34 3.7-2.76 1.33.5 2.29 1.59 3.37 2.48 5.04-1.1 9.31-4.99 14.64-4.47 6.86.06 13.72-.01 20.58.05-.57 1.06-1.14 2.13-1.7 3.2 6.83 2.44 14.23 2.32 21.05 4.85-1.04-.93-2.09-1.84-3.14-2.72 6.72-3.62 14.64 5.52 20.69-.3 3.12 4.25 9.4 1.12 13.4 4.14-2.54 4.16-7.39.48-10.91 2.26 3.45 3.9 9.57 2.26 14.1 1.65-1.24-.8-3.77-1.74-2.11-3.53 1.71-2.04 4.57-1.5 6.9-1.42l.08-.45c-1.71-.35-5.56.08-4.54-2.83 3.48.96 7.87-.05 10.67 2.53l-4.46.56c5.4 2.71 11.58 1.06 17.33.95 2.97-.08 6.61.13 8.41 2.88-3.4 1.08-6.88 2.01-10.45 2.13l.62-1.48c-.55.11-1.66.32-2.22.43-.38-.48-1.14-1.45-1.52-1.93-3.21 1.63-6.87-.11-10.01 1.8 3.25 2.31 7.2.61 10.7.03 3.28 2.34 7.33 3.88 11.41 3.01 6.57-1.35 12.71-5.06 19.63-4.39-2.68 1.77-5.73 2.83-8.88 3.33 1.97 1.5 4.06 2.86 6.3 3.93-.98-1.15-2-2.28-2.94-3.44 10.87-3.33 21.94 1.9 32.98.61 17.65-1.41 36.91-5.46 53.25 3.68a158 158 0 0 0-2.1 2.42c-3.35.01-6.71-1.03-10.03-.35l-.28 1.53c2.18.92 4.39 1.81 6.34 3.21 4.7.78 4.45-6.19 8.54-6.41 1.8.2 2.01-1.73 2.73-2.87 4.58-.88 8.96-2.66 13.59-3.28 1.71-.35 2.7 1.35 3.92 2.23 1.03-.39 2.09-.75 3.16-1.09 4.16.03 8.33.15 12.51.3 3.52.4 7.03-.2 10.5-.79-.39-.37-1.17-1.1-1.55-1.47 1.79-1.89 1.07-4.41.55-6.64-2.41-.03-4.77.47-7.11.92-4.43-7.92-15.15-2.5-21.42-7.06 28.1-.26 56.24-.25 84.34-.01 4.71 2.65 1.56 9.18-1.46 12.02 1.58-.48 4.17.06 3.88 2.24.05 2.72.12 5.46 1 8.08.78 2.6-.82 4.98-1.76 7.29-1.26 3-2.68 6-5 8.34-1.47-.43-2.91-.93-4.34-1.43-.08 2.86-1.72 5.16-4.77 5.12 1.81 2.56 5.27 4.02 5.17 7.59.34-1.62.76-3.22 1.36-4.76.4.23 1.18.68 1.57.9-.21.44-.65 1.31-.86 1.75 1.31.97 2.63 1.98 3.91 3.02.72-1.8 1.71-3.5 3.53-4.38.18 2.5.69 4.96 1.33 7.39.14 3.05-1.39 5.92-1.17 9-.23 3.41 1.29 6.61 1.19 10.01-.05 5.34.03 10.68-.03 16.03.03 1.69-.89 3.18-1.46 4.72-1.97 5.02-3.54 10.2-4.95 15.41-2.55.29-5.67.33-7.17 2.8-3.16 4.75-3.2 10.89-6.4 15.63-1.29 1.67-3.1 2.82-4.76 4.07 1.77 4.34 3.84 8.72 3.67 13.54-3.38 1.05-6.76.61-9.9-.9-1.88 7.41 4.75 12.43 9.76 16.51-.34.39-1.02 1.19-1.37 1.59l2.37-.16c-2.17 3.07-5.75.91-8.3-.27-2.99-1.28-5.76-3.74-9.18-3.5-2.12 1.21-2.41 3.84-3.1 5.93-2.33.21-4.42-.76-6.24-2.09-.04 2.55-.56 5.13-2.07 7.24-2.5 3.64-4.63 7.51-6.41 11.55-1.79-.43-3-1.79-3.99-3.23.12 1.86.22 3.72.27 5.6-.8-.27-2.39-.81-3.18-1.08-.8.99-1.54 2.02-2.23 3.08-19.67.1-39.33.03-58.99.04-1.84-4.22-2.37-8.92-.32-13.17-.82-1.23-1.58-2.5-2.33-3.75-.31 2.47-.56 5.83-4.05 5.18.98 4.4 4.06 7.77 5.98 11.74-2.41.01-4.8 0-7.19-.04.63-3.01 1.78-6.31-.47-8.97.81-1.5 1.43-3.1 1.84-4.75.7-3.2-3.99-.39-.67.45-1.54 1.05-3.11 2.04-4.7 3.01-.38 1.95-.75 3.9-1.08 5.86.99-.72 1.98-1.44 2.94-2.21.15 2.21.17 4.43.2 6.65-85.57-.03-171.14.11-256.71-.07 1.11-7.22 12.39-6.28 12.4-14.05 2.51.61 4.8 1.81 7.22 2.7 2.36.96 3.08-2.36 5.12-2.34 1.16-.4 3.54.45 3.12-1.63-2.31-.78-4.78-.17-7.16-.32.89-2.8 4.04-3.51 6.07-5.22-5.03.65-10.25.81-14.97 2.89-.37-1.13-.75-2.26-1.12-3.37-.97.31-1.94.61-2.9.92-.39-1.79-.36-3.59.28-5.3 2.87.19 5.75.38 8.59.89-.59.62-1.76 1.87-2.35 2.5 1.21-.04 2.44-.08 3.66-.1 1.84-5.8 9.03-1.93 13.32-2.54.34.92.68 1.84 1.04 2.77-.08-.75-.26-2.27-.34-3.03 2.83.01 5.67-.15 8.45-.78.21-1.81.47-3.61.77-5.4-1.49-2.43-2.6-5.06-3.08-7.87.51-.44 1.53-1.34 2.04-1.79 3.33-.23 6.64.13 9.96.37-.97-.25-2.89-.74-3.86-.99-.31-4.83-.03-9.67 1.1-14.39-2.36.04-4.78.27-7.03-.58-.66.12-1.98.37-2.64.5-1.4-.73-2.82-1.45-4.06-2.41 1.48.21 2.96.49 4.45.78 1.04.23 2.09.48 3.15.75-2.39-4.84-.49-10.21-.43-15.29-.42.75-1.13 1.41-1.21 2.32-.24 3.76-.18 7.54-.49 11.31-3.87-3.04-8.99-2.05-13.54-2.36.58-.87 1.19-1.69 1.8-2.54-.3.61-.89 1.84-1.19 2.46 1.52.03 3.04.07 4.56.11-.09-.88-.29-2.63-.39-3.51-1.14-.01-2.27 0-3.39.02.35-.49 1.06-1.46 1.42-1.95.46.57.94 1.14 1.42 1.72.29-2.89 1.02-5.95-.34-8.69.24-6.66.98-13.28 1.79-19.88.53-3.68-.32-7.42.33-11.08.3-1.17.51-2.83 2.1-2.79 2.67.02 5.33.35 8.01.34-.33 3.14-.44 6.29-.64 9.45.74-.03 2.22-.09 2.96-.11-.56-.24-1.67-.72-2.23-.95.31-2.1.64-4.19 1.19-6.23-.3-.49-.88-1.47-1.17-1.96 2.93-5.35 7.04-9.92 10.03-15.24-2.73.13-5.43.41-8.12.78.5-4.41.17-8.85.6-13.25.32-3.14 1.68-6.55.03-9.55-.84 7.45-1.28 14.96-1.47 22.46-3.2-.33-6.39-.7-9.59-.95-.14-2.1-.19-4.21-.06-6.3.66-5.38 1.29-10.76 1.49-16.17-3.5 1.08-7.35 1.81-9.91 4.66-3.84-.09-7.43 1.37-10.84 2.96-.13 1.7-.26 3.4-.36 5.12 2.01-1.41 4-2.84 5.97-4.31-2.15 2.21-4.35 4.45-5.96 7.1-.15 1.86.14 3.72.31 5.58-3.03 1.59-6.45 1.44-9.72.79-1.93 4.57-2.68 9.5-3.28 14.39 3.71-.19 7.41.26 11.06.92-.85 15.5-1.95 31.04-1.14 46.57-6.6.12-13.2.19-19.8.05.64-1.33.75-2.67.33-4.01-1.54.31-1.01 2.83-.81 4.02-6.04.75-12.1-.06-18.15.09 19.96 6.12 40.93-.55 61.23 2.37-7.54-.5-15.09-.55-22.63-.27.24 2.03.49 4.05.75 6.08.71-.09 2.13-.28 2.84-.38-.55.43-1.65 1.27-2.2 1.7 3.28 4.01 7.58 7.11 12.44 8.92 4.23 1.98 10.1.35 12.69 5.15-1.31 1.48-2.61 2.97-3.93 4.44 1.01 1.47 2.02 2.95 3.03 4.44-4.22 1.44-8.71.79-13.05 1.33-1.67.26-3.28-.24-4.86-.63-3.39.48-6.75 1.15-10.16 1.41 1.22-1.3 2.83-1.79 4.56-1.72-1.29-.84-1.6-1.68-.93-2.5.55-.05 1.65-.13 2.21-.18-.05-.59-.13-1.77-.18-2.36-1.68-1.12-3.65-1.68-5.58-2.16.3.82.88 2.44 1.17 3.26l1.57.91c-1.03.5-2.13.83-3.24 1.06.25 1.1.5 2.21.74 3.34-.88-.89-1.73-1.78-2.57-2.68l-2.99-.08c-.28-1.57.25-2.76 1.6-3.56 1.17.69 2.41.83 3.71.41-.59-1.44-2.35-1.28-3.59-1.11l-.91-.61c-2.91 2.38-6.96 3.58-10.62 2.59-.5-.28-1.49-.84-1.99-1.12 5.18-3.42 11.33-4.92 17.2-6.7l1.24.17.69 1.41c1.65-1.51 3.54-2.71 5.4-3.96-9.99.4-20.62 1.06-29.24 6.69-3.19 1.92-5.5 4.98-6.82 8.44-2.95.01-5.9.23-8.76 1 2.71.89 5.57 1.01 8.4.91l-.24 3.37c-6.09-.03-12.38-.64-18.22 1.51-.79-.55-1.58-1.07-2.36-1.59-1.05.32-2.08.66-3.08 1.08-4.27-1.49-8.84-.82-13.25-.63 2.35 3.46 6.74 3.42 10.27 2.01 3.14.06 6.27-.3 9.41-.18 5.31 1.65 10.55-2.3 15.89-.4-.09 6.64 2.04 13.13 1.44 19.79-17.02.12-34.04 0-51.06.06l-.76-2.56c-1.52-.04-3.03-.07-4.53-.11-1.02.9-2.04 1.8-3.05 2.71-6.58.76-12.78-1.85-19.27-2.01-4.88.67-9.52 2.72-14.56 1.96-.55-11.99 1.44-23.98.09-35.94-6.28 3.72-13.47-.29-20.09 1.9-.38 1.61-.76 3.23-1.17 4.84-2.02-.81-4.19-.26-6.2.21-1.43-.73-2.87-1.48-4.41-1.9-2.04-.44-4.14-.53-6.17-.96.16-.35.48-1.06.64-1.41 2.96-1.64 6.49-1.31 9.75-1.51 9.06.04 17.9-2.46 26.96-2.34 15.23-1.28 30.5-2.34 45.67-4.22-.28 2.11-.56 4.23-.85 6.36.52-.08 1.57-.24 2.09-.31-.2.43-.59 1.3-.79 1.73 5.8 1.02 11.69 1.79 17.59 1.32 1.07-9.31 1.96-18.64 3.2-27.93-.51-.03-1.53-.1-2.03-.13.46-.31 1.39-.93 1.86-1.24 1.31-5.42 1.06-11.08 2.13-16.53 1.54-4.22 5.65-7.93 4.4-12.79.38.34 1.13 1.02 1.5 1.35 1.93-1.63 3.8-3.54 6.32-4.23 2.29-.69 4.68-.04 6.98.35 5.66 1.14 11.02 3.34 16.55 4.92.12.71.23 1.41.36 2.13 2.96-3.96 7.86-5.83 10.87-9.81-.13-.69-.41-2.07-.54-2.77-2.54-.8-4.96-1.92-7.31-3.15-.49.44-1.46 1.33-1.95 1.77.14-2.89.18-5.78.03-8.65-.84 1.91-1.08 3.98-1.19 6.05-1.44-.06-2.88-.09-4.32-.11-1.27-.17-2.55-.34-3.82-.49-.35-2.82-.77-5.62-1.25-8.42-.25 3.54-.33 7.08-.45 10.63-.43-.48-1.27-1.43-1.7-1.9-6.85 2.12-13.08 5.8-20.03 7.66-.01-4.25.46-8.47 1.08-12.67-5.06.96-10.25 1.57-15.02 3.62.68.31 2.02.94 2.69 1.26-.65-.04-1.3-.07-1.93-.09-5.22-2.19-10.75 1.14-15.97 2-.72-4.69-1.46-9.39-2.47-14.03-7.58.6-15.24.86-22.69 2.52-1.44-.12-2.88-.23-4.31-.33-.42-.85-.84-1.69-1.26-2.53v2.96c.53.24 1.6.73 2.13.98l-2.9-.04c.26 1.15.51 2.3.75 3.47-.51-1.17-1.02-2.38-1.5-3.54-4.25-.13-9.56-1.61-13.05 1.46-.91-.34-1.81-.67-2.7-1.01-2.56.2-5.13.48-7.56 1.32-4.29.01-8.73-.59-12.82 1.08-.4-.14-1.19-.42-1.59-.55-3.43.36-6.87.7-10.32.5-.98-2.04-1.58-4.24-2.33-6.37l.16 1.9c-1.88.45-3.74.91-5.61 1.39 2.05-.28 4.09-.58 6.14-.85.8 2.23-.12 3.97-1.89 5.29-2.04-.13-4.07-.19-6.1-.4-.67.34-1.33.69-1.98 1.05-2.8-.1-5.61-.13-8.41.06 2.34 4.43 2.13 9.45 2.57 14.29l2.63-2.31c.7.31 2.1.91 2.8 1.22.14-.53.4-1.58.54-2.1.64.05 1.92.14 2.57.19-.09-.48-.26-1.43-.34-1.91-.2-1.24-.86-2.35-.97-3.61 1.57.5 3.14 1.02 4.7 1.59l-2.22-.34c-.36 1.55-.73 3.1-1.07 4.67.85.1 2.55.31 3.4.41-1.72.17-3.49.19-5.08.94 1.08.37 2.16.75 3.26 1.14-1.02.08-3.07.26-4.09.35-.21-.32-.64-.94-.85-1.26-.37.7-1.1 2.09-1.47 2.78.12-.83.37-2.5.49-3.33-1.58.5-3.17 1.18-4.31 2.43 2.38 12.79 4.8 25.59 6.79 38.46.87 5.22 4.27 11.14 1.12 16.15.61-.39 1.83-1.16 2.44-1.54.04 1.63.1 3.29.15 4.94-.45.28-1.36.86-1.82 1.15 2.24-.06 5.31-1.55 7.02-.41-.2.78-.44 1.55-.73 2.32-2.96 1.44-5.68 4.45-4.88 7.98 2.33 5.13 9.2 6.4 14.16 4.91 4.16-1.11 6.6-6.44 3.85-10.06 1.64-.03 3.33-.07 4.89-.69-.9 9.56-.21 19.14.06 28.7-10.72-.01-21.44.05-32.16-.03.67-3.05 1.78-5.96 3.21-8.72-1.45-.42-3.49-.4-4.1-2.08-2.95-6.55.07-13.72-.55-20.53-.58 1.23-1.11 2.49-1.6 3.77l-.45.17c-1.55.23-1.06 2.11-.23 2.87 1.06 3.51.36 7.44-.5 10.98-.67 2.62-3.45 3.57-5.85 3.83-.82-7.65 1.94-15.17 1.06-22.81l-.63-.19c-2.96-1.19-6.13-1.35-9.25-.93l.16 2.68c.98-.54 1.97-1.07 2.97-1.58l.12 1.84c-2.13 2.56-5.51 3.58-8.53 4.73-1.27 5.23-.01 10.71-1.3 15.96-2.24-.02-4.48-.26-6.69-.55-.32 2.68-.9 5.32-1.72 7.89-2.3-.78-3.83.99-4.97 2.75-11.18-.09-22.36-.04-33.53-.02-.11-9.66 8.14-17.1 7.2-26.88-4.14 2.84-8.36 7.5-13.9 6.12-2.39-1.23-4.32-3.37-5.4-5.81.17-1.87.63-3.7.97-5.53 2.3.31 4.59.66 6.89.96.25-4.47-3.75-6.38-7.01-8.29-4.87 3.15-10.24 6.25-16.28 5.77.84-4.01 2.27-7.92 2.3-12.05-2.09 6.63-7 11.93-8.69 18.69-.75-.22-2.27-.67-3.03-.89-.71-2.53-1.23-5.1-1.77-7.66-1.98 2.9-3.11 6.36-5.63 8.89.32 3.75.04 7.51.23 11.27-2.99 2.05-6.88 4.26-10.28 1.65-1.52 2.29-3.03 5.04-5.87 5.85-1.84.41-3.75.31-5.62.41-.68 2.44-1.22 4.95-2.51 7.18 5.91.21 11.83.27 17.73.71-7.87-.66-15.77.34-23.63-.54-.3 2.6-.74 5.18-1.35 7.73.84-3.61 1.01-7.33.69-11 3.05-3.66 4.43-8.37 4.76-13.05.54-7.05.52-14.16 1.5-21.17.02-3.22 5.27-3.48 4.7-6.87-1.13-5.96-3.77-13.66-10.77-14.51 0-22.18-.12-44.36.05-66.52 1.53-3.69 1.23-7.57.91-11.46 1.27.15 2.55.79 3.84.4 2.01-1.68 3.07-4.28 5.25-5.75 1.62-.41 3.29-.54 4.93-.82-2.74-.06-5.54-.12-8.04-1.38-.56 1.79-.42 4.03-1.83 5.41-1.75.59-3.32-.81-4.04-2.28-.7-4.44.27-9.31 3.45-12.63.89.33 2.69.99 3.59 1.32 4.25-3.28 3.17-9.33 1.03-13.53 5.81-.05 7.86-6.25 12.34-8.73 1.09-.84 3.7-1.83 3.62.53.07.59.19 1.78.25 2.37 1.46-3.06 3.65-5.72 6.66-7.35 1.82 3.14 3.4 7.08.88 10.34 2.33-.13 4.67-.24 7.01-.12-2.29 6.84-7.61 12.25-9.24 19.36 1.73.33 3.47.67 5.21 1.03 4.65-3.5 9.78-7.54 10.93-13.6.73-3.02-.82-5.84-2.39-8.27 2.55-.17 4.96-1.04 7.35-1.87.48.28 1.44.84 1.92 1.13 4.8-2.91 6.69-8.36 8.54-13.33m382.84 8.06c-.09.77-.25 2.31-.34 3.07-2.14-1.05-3.49.8-4.94 2.07 3.52 2.5 7.82 1.53 11.7.75-1.61-2.53-2.58-6.58-6.42-5.89m-304.99 2.45c-.49 5.8-1.03 12.08 1.36 17.54.66-4.58 1.03-9.23.64-13.85.09-1.57-.91-2.74-2-3.69m20.14 3.18c3.31.56 6.62 1.23 10 1.3-1.79-3.76-7.08-3.55-10-1.3m486.48.28c1.16.72 2.77.95 4.12.71.07-1.66-3.83-2.34-4.12-.71m-625.71 3.49c-.33.81-.65 1.63-.97 2.45 2.87 1.3 6.02 1.82 9.14 1.13-.16-2.02.47-3.93 1.24-5.76-2.92 1.52-6.22 1.71-9.41 2.18m432.04-2.19c1.73 1.9 4.26 2.7 6.79 2.68-1.37.86-2.7 1.76-4.08 2.61.2.35.6 1.06.8 1.42 2.45-2.21 5.09-4.27 8.29-5.28-.61-.21-1.07-.64-1.63-.87-3.31-1-6.78-.75-10.17-.56m232.31-.73c.39 3.52-3.89 1.67-5.79 2.44.27 1.51.58 3.03.93 4.53 3.23-1.19 6.63-2.03 10.07-1.15-.02-1.68-.01-3.36-.01-5.03-1.74-.25-3.48-.51-5.2-.79m-185.87 4.35c7.41 1.3 15.06 4.59 22.51 1.62.51 1.44 1.61 2.49 2.7 3.53-3.51-1.64-7.95-1.99-10.23 1.82 10.55.69 20.91-1.97 31.43-2.12-10.81-3.68-22.3-5.64-33.72-4.27-3.29-3.56-9.35-4.63-12.69-.58m-140.18 3.35c.09 3.83-.92 7.71-.2 11.51-.25.66-.49 1.33-.72 2 .34.09 1.02.27 1.36.37.38-2.26.32-4.53-.09-6.78.49-.25 1.48-.74 1.97-.99-.32-.21-.96-.63-1.28-.83-.29-1.75 1.14-4.41-1.04-5.28m133.08.21c-.41.49-1.24 1.46-1.65 1.94.51 1.33 1.04 2.67 1.58 4 .19-1.61.41-3.21.65-4.81 1.25 1.24 2.46 2.53 3.66 3.83-1.01 1.2-2.02 2.39-3 3.61 3.79 4.25 3.98 10.11 4.92 15.43 7.05 3.2 13.37 7.69 19.98 11.66-.95-1.93-2.28-3.68-4.2-4.72 2.81.24 5.67.57 8.46-.12 2.74-.81 6.2.71 8.38-1.58-6.11.12-12.67-1.73-18.44.92-2.65-1.05-5.08-3.21-4.69-6.32-1.02.96-2.04 1.92-3.03 2.9-1.9-1.41-4.06-2.76-5.02-5.02-2.25-4.81-1.51-10.27-.76-15.33-1.77-2.65-3.6-5.46-6.84-6.39m-352.08 5.8c-1.1 4.03.18 8.14.36 12.2.59-.33 1.79-1.01 2.38-1.35 1.97-.65-.81-1.57-1.27-1.84-.06-2.6.1-5.2.51-7.76-.66-.42-1.32-.84-1.98-1.25m298.6 4.07c1.43.49 3.56-1.21 3.52-2.66-1.44-.34-3.85 1.03-3.52 2.66m186.39-2.67c-1.16-.47-2.91 1.43-1.16 1.93 1.19.62 2.92-1.52 1.16-1.93m-16.27 1.59c-6.13.12-12.08 1.71-18.15 2.39-7.89 2.23-15.58 5.21-23.55 7.19-4.32 1.5-4.17 6.7-4.56 10.42-1.49.15-3.11-.07-4.33.99l3.1.4c.23 2.81.53 5.62.59 8.45.34.39 1.01 1.18 1.34 1.57.34 9.19-.89 18.51.97 27.57-.85 6.84-1.23 13.74-.87 20.63-1.93 1.64-3.96.64-5.92-.28 1.28.92 2.6 1.81 3.94 2.68-.12.53-.37 1.58-.49 2.11.64-.65 1.91-1.95 2.54-2.6-.04 2.21.03 4.58-1.74 6.2l-1.09-1.64c-.31 1.94 1.33 2 2.8 2.17-.09 2.61-.16 5.22-.4 7.83-5.21-1.49-9.29-5.38-13.23-8.91.48.41 1.44 1.24 1.92 1.65.86-2.79 1.51-5.68 1.56-8.61.02-4.81 2.18-9.23 2.83-13.95 1 1.29 2.53 1.95 3.91 2.77-4.86-5.41-7.56-12.13-10.05-18.84-.67.29-2.01.86-2.67 1.14-.56 1.48-1.55 2.66-2.89 3.5-10.21-3.34-21-4.48-31.71-4.04-1.04.34-2.07.73-3.07 1.17-.11-2.22.52-4.35 1.38-6.35-3.09-3-.51-7.01-.5-10.6-.68 1.29-.65 3.04-1.76 4.07-1.97-.88-3.88-1.92-5.98-2.44-.26 1.5-.5 3.01-.69 4.53-2.59.79-5.24 1.42-7.67 2.64 2.46-.45 6.63.4 7.64-2.46.3.59.88 1.77 1.18 2.36.72-.47 2.16-1.42 2.89-1.89-.03 3.61-.25 7.32.75 10.84-4.42 1.11-8.78 2.41-13.21 3.43-4.36.94-7.73 4.05-11.09 6.77-3.05 2.79-6.3 5.98-7.06 10.23-.85 4.39-1.68 8.8-2.05 13.27-.68.17-1.36.2-2.04.09l-.6.08c-1.31 1.3 2.27 1.34 3.18 1.66 1.96 11.03 12.97 17.18 22.69 20.49-.81.25-2.45.74-3.26.99 2.72.45 5.43-.92 8.17-.25 8.14 1.49 16.63 1.28 24.58-1.11.81 1.18 1.82 2.19 2.84 3.23.13-.55.39-1.67.52-2.22 3.02 2.11 6.82 2.21 10.11 3.69-.13.65-.38 1.96-.51 2.62 2.47-.15 5.5 2.27 6.68 4.76 1.55.1 3.38.44 4.19-1.32 1.3-1.73-1.19-3.02-2.25-3.98 4.48-1.73 4.76-6.79 4.6-10.88-1.18 1.92-2.36 3.85-3.78 5.61.27-3.84.98-7.62 1.81-11.37l2.98-.44c-.71-.23-2.13-.68-2.85-.9.23-1.3.46-2.58.71-3.86 2.1.36 3.94 1.59 5.9 2.4-.43 2.57-.64 5.17-.96 7.76.57.23 1.71.7 2.28.93.48 2.33.35 5.25 3.02 6.22-4.09 1.67-2.82 6.84-3.27 10.32 1.34-.72 3.38-.66 4.07-2.27 1.36-3.1 1.36-6.61 2.81-9.69 1.55 2.55 2.28 5.87 4.84 7.65.46-.11 1.4-.34 1.86-.46-1.19-3.28-3.46-5.97-5.37-8.82.59-.13 1.78-.37 2.38-.5-1.03-.58-2.03-1.17-3.01-1.77 7.22-.08 14.45.31 21.66-.31l2.73-.96c0-3.88.3-7.78-.05-11.64-1.1-3.21-2.18-7.13-.01-10.14.67-9.07-.05-18.15.07-27.23-2.44-2.27-.48-5.58 1.05-7.75.17-1.7.35-3.39.55-5.08-1.2-1.04-2.08-2.3-1.33-3.91 3.34-1.09 6.71-2.08 10.06-3.16 1.03-2.34 3.44-3.13 5.64-4.02-.08-.66-.22-1.98-.29-2.64 1.29-.48 2.58-.97 3.89-1.44 4.04 1.3 8.06 4.24 12.47 2.8-2.59-1.07-5.75-1.22-7.72-3.42 4.76 1.01 9.64 2.41 14.5 1-4.65-1.64-9.71-1.02-14.5-1.99-.05.49-.16 1.47-.21 1.96-.83-.47-2.48-1.42-3.31-1.89.45-.52 1.33-1.57 1.77-2.09 3.01 0 5.85 1.07 8.79 1.6-3.89-2.53-9.19-3.1-13.57-1.56.46.39 1.38 1.18 1.85 1.57-1.16-.18-2.3-.35-3.43-.51-1.65 3.05-6.04 2.62-8.86 1.68 2.72-.72 5.36-2.91 8.26-1.67.24-.93.45-1.86.64-2.8-1.57-1.32-3.29-.12-4.89.38-.78-1.03-1.51-2.03-2.28-3.03.01.65.01 1.95.02 2.6-2.12-.42-4.23-.81-6.37-.98l.25-1.94c1.14.1 3.42.31 4.57.42-2.14-1.59-4.87-1.47-7.36-1.78-.06-.97-.17-2.91-.23-3.88 3.63.5 7.44 1.87 11.02.3-1.99-.42-3.98-.67-5.98-.9-.63.11-1.88.34-2.51.45 1.18-2.01 2.74-3.92 5-4.73-.77-.27-1.51-.53-2.25-.8-.04.52-.11 1.57-.14 2.09-2.87.38-5.69 1.29-8.61 1.03-5.42-.48-10.74 1.24-16.17.75 2.61-1.35 5.41-2.29 8.2-3.2 8.27-1.46 16.13-4.6 24.33-6.35.28.19.84.58 1.11.77.27.48.81 1.43 1.08 1.9.34-.22 1.02-.68 1.36-.9-.31-.54-.43-1.1-.35-1.68 3.17-.59 6.36-1.08 9.51-1.78-2.12-1.48-4.57-.23-6.89-.16m10.04-.64c.64.41.64.41 0 0m-281.87 2.96c.23 1.41 3.94 1.36 4.22 0-1.2-.79-3.03-.8-4.22 0m11.03-.13c.22 1.32.95 1.52 2.17.61-.25-1.32-.97-1.52-2.17-.61m-271.68 16.25c1.33-4.61 1.75-10.02-.25-14.51-1.61 4.67-.6 9.79.25 14.51m79.5-13.29c-.81 1.26-.58 2.03.69 2.33.82-1.28.59-2.06-.69-2.33m192.24-.05c.17 1.37.85 1.6 2.05.7-.18-1.36-.87-1.6-2.05-.7m59.02 3.05c.04 4.13-2.18 7.79-2.49 11.87-.74 3.52.69 6.91 1.71 10.21-.33.46-.99 1.38-1.33 1.83.01.66.04 1.97.05 2.62l2.3.32c-1.01.77-2.02 1.54-3.04 2.31 1.03 2.01.49 4.33.57 6.5 2.77-.39 5.6-.23 8.27.65-2.77.11-7.22-.21-7.3 3.68-1.41.07-2.81.17-4.21.29 2.05.23 4.1.37 6.17.58-.81 1.94-1.53 3.92-1.76 6.03l-1.59.27c.56.15 1.68.44 2.24.58-4.84 13.96-2.02 29.05-3.55 43.49 1.6-.68 3.21-1.36 4.83-2-1.62 1.31-3.31 2.54-4.99 3.77.41 1.58.75 3.18 1.07 4.8-2.8 4.45.36 9.56 1.5 14.04-.58.87-1.2 1.71-1.85 2.53-1.38 2.67-5.49 4.43-4.42 7.9.59 1.52.64 3.69 2.36 4.43 1.95.66 4.05.51 6.08.64 1.54-1.11 2.94-2.91 4.99-2.96 3.52.63 6.46 3.31 10.13 3.28-3.04-1.59-6.29-2.69-9.5-3.83.4-2.43-2.34-3.01-3.85-4.17-.07-.55-.21-1.65-.29-2.2-.59-1.55-.97-3.18-1.26-4.79 1.37-.56 2.75-1.11 4.11-1.72-1.67-.44-4.76 1.44-4.98-1.33 2.56.16 5.76-.9 7.79 1.23-1.77 1.87-4.22 3.51-4.39 6.34 3.15-1.63 4.03-7.38 8.27-5.89-.05-1.02-.06-2.02-.06-3.03 1.48-.22 2.91-.66 4.29-1.32-1 .88-2.25 1.53-3.05 2.62.56.13 1.66.39 2.22.52l-1.99 2.91c1.22-.77 2.42-1.6 3.61-2.42 1.61-.18 3.64.64 4.94-.66 2.37-1.99 1.4-5.35 1.56-8.02l1.63-.27c-.47-.35-1.42-1.07-1.9-1.42.6-6.96 1.07-13.93 1.93-20.86 4.23 9.61 7.73 19.53 12 29.13 3.76 1.5 7.68 2.77 11.78 2.8 5.71.04 11.57.56 17.1-1.27-1.38-3.38-2.73-6.76-4.24-10.08-3-5.85-4.71-12.25-7.85-18.03-1.55-2.66-2.31-5.65-3.65-8.38-2.53-4.08-3.24-8.93-5.27-13.24 7.1-9.08 14.24-18.13 21.23-27.29-9.88-1.6-19.99-2.36-29.89-.57-2.49 2.71-4.37 5.88-6.25 9.02l-3.51-.44c.23-8.79.04-17.61.87-26.37-.22-.39-.65-1.18-.87-1.57 1.54-3.9 1.26-8.18 1.69-12.28-4.04-.89-8.17-.56-12.26-.73-5.24-.12-10.49-.71-15.7-.05m195.22.23c1.64.68 3.33 1.13 5.05 1.61-.1.45-.31 1.34-.41 1.79.63-.53 1.28-1.06 1.93-1.58.59-.72 1.19-1.44 1.8-2.14-2.78.47-5.59.24-8.37.32m-219.03 2.46c-3.36 1.19-7.33 1.91-9.28 5.25 1.94 2.51 3.87 5.38 7.06 6.39 5.44 1.74 11.84 1.69 16.72-1.57 1.93-1.35 3.06-4.66 1.41-6.55-4.71-2.85-10.36-5.16-15.91-3.52M852 473.94c-3.22.22-6.46-.11-9.68.15-1.86 3.46-5.3 5.83-6.83 9.46-.41 1.45 1.74.68 2.48 1.06 6.85 1.01 12.22-3.95 17.96-6.73 3.23-1.7 6.95-1.45 10.46-1.04-1.57-1.77-3.08-3.55-4.5-5.42-.39 2.2-2.18 3.3-4.1 4.07-.71-1.5-1.39-3-2.19-4.43-1.71.22-1.92 2.7-3.6 2.88m-510.55-2.04c-.44 1.43.01 1.96 1.36 1.59.43-1.45-.02-1.98-1.36-1.59m446.96.18l.08 2.57c1.87-.04 3.75-.01 5.63.05-1.93-.84-3.83-1.71-5.71-2.62m-113.86 1.88c-.04 1.19-.06 2.39-.08 3.6 1.51.28 3.04.59 4.56.9-.24-1.23-.49-2.47-.71-3.69-1.27-.29-2.52-.57-3.77-.81m133.78.03c.26 3.35 2.87-1.59 0 0m-329.82.9c-.22 5 .51 10-.38 14.97l1.47-.24c-.18-.88-.35-1.75-.51-2.62.23-1.29.43-2.58.62-3.86.58-1.66 1.47-3.26 1.59-5.03-.16-1.57-1.64-2.42-2.79-3.22m-152.22.34c-.14 2.86-2.15 6.16.03 8.69-.1 2.98-.75 6-.02 8.95.84 3.36-.18 6.77-.44 10.13 1.58 2.24.29 5.63 2.56 7.34.58-6.72-1.49-13.77.55-20.27-.98-4.87 1.31-11.03-2.68-14.84m457.35.8l2.1.98-2.46 1.62 2.3.75c.14-.48.44-1.44.58-1.92.75-.25 2.24-.77 2.98-1.02-1.84-.17-3.68-.31-5.5-.41m-396.3 3.1c1.33.26 1.83-.32 1.49-1.73-1.35-.28-1.85.3-1.49 1.73m-126.43.35c-.48 3.29.2 6.57.28 9.86.9-.43 1.81-.86 2.72-1.28-3.73-1.85.74-7.14-3-8.58m462.96 2.99c2.36.32 4.76.49 7.11-.05 4.14-.8 8.38-.45 12.57-.76-1.89-1.63-4.38-.81-6.6-.82-4.38.27-9.09-.68-13.08 1.63m-313.56-1.24c.51.6.51.6 0 0m269.17 1.06c3.85 2 8.81 1.33 12.91.5l-2.16-1.76c-3.17 2.49-7.11 1.07-10.75 1.26M810 481.07c-.4 1.39.1 1.82 1.51 1.31.39-1.42-.12-1.85-1.51-1.31m-151.28 2.48c6.48.41 13.22.82 19.53-1.02-5.41-.57-10.88-.86-16.3-.44-1.27-.03-2.23.84-3.23 1.46m-328.57.77c-1.54 2.94 3.37.1 0 0m375.2 4.73c1.11.62 2.23 1.25 3.38 1.85.48-2 .54-4.08-.76-5.78-.7 1.42-1.38 2.89-2.62 3.93m-234.32-2.67c-1.33 3.1 3.3-.11 0 0m241.26 6.87c2.83-1.54 2.49-4.95 2.2-7.68-1.65 2.21-1.87 5.04-2.2 7.68m-221.75 2.53c.28 0 .85.01 1.13.01.2-2.33.22-4.68-.16-6.98-1.07 2.17-.92 4.61-.97 6.97m-13.81-3.53c.5.09 1.51.25 2.01.34.18 1.59.4 3.19.65 4.79.61-1.58 1.09-3.25.57-4.94 1.89.39 3.79.79 5.68 1.23.46-.74.92-1.47 1.4-2.19-3.39.69-7.22-1.01-10.31.77m181.56-1.31c-.08 3.34 3.04-1.44 0 0m-211.97 1.09c-.43 1.37.06 1.93 1.45 1.69.39-1.38-.09-1.94-1.45-1.69m234.88.29c.6.47.6.47 0 0m-254.4 4.86c1.6-1.54 3.27-3.01 5.12-4.25-2.34.57-5.12 1.28-5.12 4.25m258.43-3.95c.51.58.51.58 0 0m23.59-.36c1.14 2.45 3.5 3.87 5.71 5.25-1.46-2.18-3.3-4.14-5.71-5.25m-446.86.58c-1.55 7.39.72 14.99-.27 22.49 1.54 4.2.5 8.79 1.28 12.99.53.89 1.02 1.83 1.44 2.81l-2.23-.6c-.11.34-.33 1-.44 1.34 1.33 4.9.64 9.93.54 14.92-2.8-.26-5.6-.33-8.4-.4l-.17.78c2.88.1 5.76.43 8.62.85l-.03 1.73c-1.46.02-2.93.07-4.39.14 1.52.05 3.04.04 4.57.07.5 7.81-.88 15.65.15 23.42.47 3.74-.68 7.37-1.32 11.01 2.58-.33 5.15-.82 7.46-2.05 4.6-1.08 9.14.16 13.69.82l-.07-1.59c1.65.09 3.31.17 4.95.39-1.08.08-3.26.25-4.34.34.88 1.15 1.66 2.54 3.2 2.89 1.48-2.89 3.71-5.25 5.77-7.72 1.46.21 2.92-.01 4.34-.36-1.33-.23-2.67-.42-4.02-.57 1.76-4.36 3.87-8.58 6.38-12.54 1.54-2.22 1.68-5.17 3.73-7.06 1.02-3.34 2.56-6.48 3.81-9.73 1.28-.12 2.58-.21 3.88-.33-.85-.14-2.54-.43-3.39-.58 1.2-3.71 2.85-7.95 7.23-8.61-.77.05-2.3.16-3.06.21 2.16-4.72 4.92-9.15 6.8-14 1.93-4.71 5.2-8.73 7-13.5-5.77-1.55-11.73-2.15-17.64-2.93-2.24-.26-4.65-.71-6.74.41-1.07 2.68-1.64 5.53-2.69 8.22-3.68 7.55-5.71 15.86-10.24 23.01-1.75-2.35-1.97-5.61-.78-8.25-.26-.28-.77-.85-1.03-1.13.38-7.77 1.1-15.62-.29-23.33-3.67-2.34-8.11-2.12-12.21-3-3.02-.73-6.13-.27-9.18-.67-.22-3.36.51-7.13-1.91-9.89m83.31.77c.49.61.49.61 0 0m467.11-.01c.21 1.35.91 1.55 2.1.61-.24-1.35-.94-1.55-2.1-.61m4.42 8.04c.68-.18 2.04-.54 2.73-.72l.21-5.03c-2.55.82-2.74 3.48-2.94 5.75m-98.78-1.5c1.72.9 3.5 1.82 5.28 2.68-.31.47-.92 1.41-1.22 1.88 4.02.99 6.92 4.41 11.11 5.02-.06-.44-.19-1.32-.25-1.76-1.18.22-2.82 1.5-3.68.08-2.93-3.19-5.51-6.73-8.83-9.56-.6.41-1.81 1.24-2.41 1.66m-252.77-.49c.59.56.59.56 0 0m-200.02.98c.63.51.63.51 0 0m224.97.05c-.8.82-.63 3.14.72 3.23.77-.82.68-3.26-.72-3.23m4.7-.05c-1.47 3.04 3.33-.04 0 0M859 505.2c-.02 1.63-.03 3.27-.02 4.91 2.24-.01 4.49-.02 6.75-.04 1.59-2.56 3.2-5.12 4.39-7.89-4.18-1.1-7.19 2.56-11.12 3.02m-416.72-1.96c.57.58.57.58 0 0m-13.11 1.2c-1.12.79-.27 3.75 1.2 2.43 1.1-.83.27-3.61-1.2-2.43m134.45 1.96c-2.39.83-4.95.69-7.4.34-2.05 1.61-6.24.8-6.04 4.3 1.22.92 5.19.03 4.38 2.59 1.22-.26 2.69-1.11 3.53.33 2.05 3.61 1.61 8.06 1.68 12.09.1 3.62-1.85 7.52.13 10.91l.24 3.11c-3 4.89-1.73 10.77-2.35 16.18.18 1.21.35 2.44.53 3.67-3.28 2.44-7.88 3.13-10.32 6.56 1.99.11 4 .16 6-.02 5.35-.63 10.66.7 15.97 1.16 1.87.93 3.52 2.27 5.21 3.5.88-1.19 1.76-2.38 2.66-3.55 3.25-.45 8.23 2.04 10.02-1.72-3.32-1.41-7.24-2.15-9.68-5.01-.06-5.14.52-10.3.43-15.45-.69.24-2.08.73-2.78.97 1.57-.86 3.19-1.64 4.79-2.47-.44-.13-1.32-.4-1.75-.53l.24-3.07c.77-.08 2.32-.25 3.09-.33-2.9-1.4-3.06-4.53-2.72-7.35l-.96-.01c.43-3.37.72-6.75.86-10.14l1.94.45c-1.21-1.78-2.28-3.66-2.83-5.75.67-.21 2.03-.63 2.71-.84l-2.51.12c.37-2.12.54-4.26.53-6.4.7-.21 2.09-.65 2.78-.87-1.09-.2-2.18-.39-3.26-.57.54-.84 1.64-2.52 2.18-3.36-1.11-.95-2.32-1.96-3.9-1.55-4.52.52-9.07 1.24-13.4 2.71m-94.82-1.18c2.64 1.19 5.5 1.73 8.24 2.65.31-.48.92-1.44 1.23-1.92-3.17-.17-6.3-.78-9.47-.73M717.28 510c.08 3.31 3-1.56 0 0m-391.09 1.86c.81.98 1.34 2.1 1.59 3.37 1.8-.68.78-2.81.98-4.22-.86.28-1.72.56-2.57.85m167.89-.56c.15 3.3 3.03-1.46 0 0m94.21.85c.5.6.5.6 0 0m197.24.18c-1.5.36-1.97 3.55.18 2.52 1.78-.23 2-3.67-.18-2.52m-111.41.94c.59.58.59.58 0 0m-347.98 8.8l-4.05.27 1.27 1.21c.69-.23 2.07-.67 2.76-.9.52 2.61.61 5.29 1.09 7.91.36.15 1.1.43 1.47.57-1.34-3.45.44-7-.36-10.51-.23-1.78.7-3.86-1.12-5.07-.4 2.16-.7 4.34-1.06 6.52m465.44 3.67c.29-1.78.57-3.53.84-5.3l-1.16-2.48c-2.85 1.78-1.24 5.61.32 7.78M540 520.52c.17.4.52 1.21.69 1.61-1.27.79-2.52 1.62-3.72 2.5 1.14-.47 2.27-.96 3.41-1.46-.07 1.05-.2 3.15-.26 4.2 1.61-2.85 3.09-5.78 4.96-8.48-1.68.59-3.38 1.14-5.08 1.63m-57.93 4.87c.17 4.39.49 8.8 1.26 13.13.39.21 1.16.64 1.55.86-.61-3.82-.96-7.67-1.55-11.49-.1-.99-.52-1.82-1.26-2.5m19.97 1.15c-1.15.93.23 3.42 1.59 2.42 1-.98-.23-3.31-1.59-2.42m78.18-.7c-.72 1.42-.67 3.33.08 4.74 1.15-.65 1.27-4.32-.08-4.74m197.28 2.26c-.02 1.59-.03 3.2 0 4.81.95-.49 1.92-.97 2.89-1.46.73 1.76 1.36 3.57 2.16 5.31 1.78.63 1.4-1.8 1.56-2.85-.9-2.9-3.14-6.28-6.61-5.81m-238.13 7.64c.37.03 1.09.07 1.46.1-.11-2.1-.24-4.19-.52-6.25-.78 1.95-.85 4.07-.94 6.15m-36.98-4.66c-.77 1.02.05 2.99 1.46 2.7 1.93-.61.07-4.23-1.46-2.7m-13.26.87c.74 3.79.55 7.67 1.13 11.49 1.91-2.54.04-5.9-.07-8.73l1.88.47.22-1.21c-.58.18-1.75.55-2.33.74-.01-.76-.02-2.28-.02-3.04l-.81.28m-164.87 1.11c.17 3.3 2.98-1.56 0 0m-.14 2.95l-.02.73c.54.07 1.61.22 2.15.29.74 2.49.85 5.08.64 7.67-.61.27-1.83.79-2.44 1.05.58.06 1.74.17 2.32.23.4 1.13.83 2.29 1.38 3.38.43-1.26.86-2.52 1.29-3.77-.43-2.65-.8-5.3-1.09-7.96.91-.56 1.84-1.08 2.81-1.54-2.35-.01-4.69-.04-7.04-.08m179.14.36c-.81.94.4 2.96 1.62 2.41.8-.96-.4-2.97-1.62-2.41m306.13 1.83c-1.37.59-1.43 1.26-.18 2.01 1.37-.6 1.43-1.28.18-2.01m10.24 5.38c2.11 1.62 4.89 1.75 7.43 2.14-.67-.95-1.3-1.94-2.12-2.74-1.73-.66-3.61.3-5.31.6m-169.36-.39c.55.57.55.57 0 0m-160.14 2.02c-1.56 3.03 3.28.21 0 0m-6.03 2.03c-1 1.03-.66 3.32.85 3.69 1.85-.33 1.04-4.47-.85-3.69m306.16-.07c-.73 1.22 1.34 2.41 2.25 1.52.65-1.19-1.37-2.47-2.25-1.52m6.17 2.79c-.09 3.36 3.01-1.38 0 0m-469.26 1.12c-.23 4.31.47 8.64-.25 12.94-.91.56-1.81 1.13-2.72 1.69.6.11 1.79.34 2.38.45-.29 1.72-.17 3.53 1.07 4.89 2.97-.88-.28-5.23 2.54-6.75.7 3.73-.66 7.33-1.12 10.99-.05-.81-.16-2.43-.22-3.24-.38.04-1.16.13-1.55.17.36 2.83-.26 6.06 1.65 8.45.03-.64.08-1.91.11-2.55 2.95-3.8 4.54-10.07 1.12-14.04l-1.67.1c.01-4.35.47-8.69.12-13.03a71.3 71.3 0 0 0-1.46-.07m462.26.1c.16 3.34 2.91-1.58 0 0m-2.11 3.08c-.38.36-1.15 1.06-1.53 1.42-.18.5-.53 1.51-.71 2.01 2.53-.17 4.94.68 6.94 2.24-.35.82-1.06 2.45-1.41 3.27.58-.26 1.73-.77 2.31-1.03-1.07-1.86-.01-3.66 1.12-5.15-1.35-.24-2.69-.48-4.03-.74.42-.59 1.26-1.79 1.68-2.39-.99.74-1.97 1.49-2.93 2.26-.36-.48-1.08-1.42-1.44-1.89m-301.21 4.41c-1.46 3.03 3.31.09 0 0m-246.07.96c-.94 1.91-1.94 3.8-2.93 5.7 1.38.36 3.71-.62 4.19 1.35.81 1.93.64 4.11.93 6.17 1.42-.17 2.84-.33 4.26-.49.9-4.22-.91-8.06-2.57-11.79-1.3-.31-2.59-.64-3.88-.94m250.77 6.77c-.05-1.91-.13-3.81-.32-5.7-1.56 1.62-2.06 4.55.32 5.7m324.27-.81c2.68.63 5.49 1.74 8.15.39-1.44-.7-2.88-1.37-4.13-2.34-1.27.8-2.54 1.63-4.02 1.95m-355.87-1.32c.55.59.55.59 0 0m27.33 6.9c2.31-1.26.99-4.14.89-6.18-1.98 1.46-.78 4.13-.89 6.18m61.63-1.05c.28 3.35 2.88-1.67 0 0m263.94-.02c.3 3.32 2.85-1.7 0 0m7.41 2.9c2.54.63 4.19-1.36 5.69-3.01-2.11.56-4.35 1.14-5.69 3.01m-332.37-.63c-1.6 2.99 3.29.2 0 0m87.2 1.52c-.54 1.64-.02 2.26 1.55 1.86.54-1.67.02-2.29-1.55-1.86m-272.42 1.15c2.36 3.52 7.56 5.74 11.2 2.72-.8-.18-2.39-.53-3.19-.71.13-.53.38-1.58.5-2.11-2.84 0-5.68 0-8.51.1m12.13.19c1.45 1.62 2.41 3.9 4.7 4.56-.39-1.68-.84-3.31-1.32-4.96-1.13.12-2.26.25-3.38.4m198.67 1.61l-2.77-.08c.79.6 2.37 1.81 3.16 2.41 1.43-.3 1.9-2.14 2.87-3.11-1.43-.99-2.52-.73-3.26.78m31.74-.81c-.92.35-2.64 1.09-2.22 2.35 1.58 1.19 5.57-2.83 2.22-2.35m41.78.11c.31.71.31.71 0 0m80.09-.08c.05 3.35 2.96-1.53 0 0m149.89 2.01c.27 3.34 2.86-1.67 0 0m-394.86 1.84c1.22.83 1.97.6 2.26-.7-1.23-.85-1.98-.62-2.26.7m4.06-.78c.17 1.33.88 1.57 2.13.72-.19-1.35-.89-1.59-2.13-.72m330.69-.13c-.12 2.4-.12 4.81-.02 7.23l2.72-.56c1.67-2.44-.34-5.58-2.7-6.67m-457.8 1.19c-.3 1.37.26 1.84 1.67 1.41.29-1.37-.27-1.84-1.67-1.41m197.14 1.05c.25 1.32.97 1.51 2.15.58-.26-1.34-.98-1.53-2.15-.58m84.82-.18c.03 3.34 2.98-1.46 0 0m30.99.22c.51.56.51.56 0 0m-284 2.69c-.35.08-1.06.25-1.41.33 1.18.57 2.3 1.25 3.37 2.04 0-1.72-.05-3.43-.17-5.13-.97.67-1.57 1.59-1.79 2.76m273.18-.83c-.17.68-.51 2.04-.67 2.72.6 1.34 1.11 2.76.75 4.26 1.48-1.01 2.99-1.96 4.49-2.94-1.01.21-2 .45-2.99.69-.07-.76-.22-2.3-.29-3.07.64-1.08 1.28-2.16 1.91-3.24-1.08.51-2.14 1.04-3.2 1.58m123.97.37c.24.33.72.98.96 1.3-.8 2.54-1.48 5.11-2.03 7.72 3.11-3.29 5.53-7.4 5.6-12.05-1.47 1.08-2.93 2.16-4.53 3.03m-139.99 2.39c1.27.41 2.64-.93 2.99-2.09-.79-1.54-3.54.77-2.99 2.09m20.06-3.42c.02.79.07 2.35.09 3.13 1.83.93 3.67 1.85 5.6 2.58-2.23-1.57-3.92-3.68-5.69-5.71m12.8.79c.58.55.58.55 0 0m-97.12.89c.36 3.32 2.82-1.74 0 0m214.47-.51c3.96 4.74 9.52 7.71 14.9 10.54-.79.58-1.54 1.19-2.31 1.78 3.25.18 5.79 2.32 8.55 3.82-3.49-4.23-7.13-8.35-11.31-11.91.3.74.88 2.22 1.18 2.95-4.98-.07-6.47-6.14-11.01-7.18m82.02.98c.48 2.13.99 4.26 1.48 6.39 2.27-.1 4.56-.25 6.76-.88.91-1.66 1.95-3.25 2.86-4.91-3.61-1.25-7.44-2.22-11.1-.6m-620.46 4.26c-.27 3.09 1.41 5.56 3.65 7.49.06-.84.19-2.51.26-3.35 2.01-1.32 4.34-2.25 6.05-3.97.48-1.27.57-2.65.81-3.96-4.79-1.78-6 5.27-10.77 3.79m348.87-2.02l2.06 2.79c.97-4.92 8.29.92 9.22-3.58-3.77-.52-7.58.13-11.28.79m11.57.4c4.43.67 8.95.93 13.42.57 1.3.06 2.22-.98 3.25-1.59-5.51-.7-11.38-.92-16.67 1.02m22.58-1.04c.61.51.61.51 0 0m-296.28 1.09c-.19 6.84-2.22 13.93.13 20.6 1.51-2.74 5.67-.96 6.55-4.4-1.97-.13-3.95-.05-5.9-.32-.89-4.16.68-8.18 1.31-12.23.28-1.64-1.12-2.62-2.09-3.65m168.03 1.98c2.01.29 4.04-.03 6.06-.11 4.42-.35 8.91.78 13.26-.5-4.52-1.88-9.51-.05-14.2-1.23-1.66-.19-5.5-.89-5.12 1.84m-28.37.35c2.89 1.29 6.23.88 9.22.14-1.47-1.26-3.46-.97-5.22-1.21-1.34.35-2.69.68-4 1.07m19.06-.18c2.97.03 6.51.9 9-1.21-2.96.07-6.47-.75-9 1.21m138.27 2.33c-.24 1.06-.57 2.05-.84 3.12 1.93 2.03 4.41 3.42 7.14 4.06-1.12-.78-2.29-1.49-3.45-2.17a97.83 97.83 0 0 0-1.2-6.63c-.56.53-1.11 1.07-1.65 1.62m25.74-.45c1.39 1.19 3.1 1.94 4.89 2.32 1.96-3.03-3.16-2.29-4.89-2.32m214.97.93c-.44.86-3.04 2.01-1.58 2.95 1.96 1.11 3.99-4.09 1.58-2.95m-406.61 3.73c4.46.16 8.93.23 13.39-.06-3.71-3.09-9.97-3.9-13.39.06m22.21-3.16c-.41.42-1.22 1.27-1.63 1.69-1.62-.18-3.24-.35-4.84-.57-.31.53-.93 1.6-1.24 2.13 4.22.07 8.66.43 12.55-1.57-1.61-.6-3.22-1.14-4.84-1.68m387.18.3c.22 3.33 2.89-1.62 0 0m-125.84 2.79c-.92 2.48-2.02 5.08-1.6 7.8.66.28 1.99.85 2.65 1.13l-.11-2.4-1.35.35c.92-2.21 1.24-4.6.41-6.88m-273.71 2.74c4.19.48 8.47-.47 12.61.5l.85 1.66c-1.66-.02-3.31-.05-4.96-.09-.03.15-.08.46-.11.62 1.86.1 3.73.21 5.61.35-.28-.55-.83-1.65-1.1-2.21.56-.04 1.69-.13 2.25-.18-1.82-.72-3.64-1.43-5.44-2.18-3.2.77-6.48.99-9.71 1.53m.58 1.49c.22 1.33.94 1.58 2.16.76-.24-1.36-.96-1.61-2.16-.76m4.46-.34c-.4 1.59.21 2.14 1.83 1.64.39-1.63-.22-2.18-1.83-1.64m35.49.62c-.13.59-.39 1.77-.51 2.35-1.64.28-3.29.52-4.91.82 1.68.04 3.36.01 5.05.03 1.74-2.93 5.46-1.37 8.21-2.12-2.58-.58-5.22-.83-7.84-1.08m-24.96.62c.22 1.37.91 1.58 2.06.65-.23-1.38-.92-1.59-2.06-.65m379.14.48c-1.81.54-4.08.43-5.17 2.25.73-.05 2.17-.16 2.9-.21 4.39 1.29 9.87 3.53 13.52-.56-.64-.35-1.91-1.06-2.55-1.42a14.903 14.903 0 0 1-6.7 2.64c.69-3.24 4.56-1.16 6.58-2.92-2.86-.35-5.78-.54-8.58.22m-527.13.41c-.55 2.45-1.38 5.05-.36 7.52 2.61-1.73 2.34-5.42.36-7.52m312.8 1.1c.15 3.34 2.94-1.54 0 0m6.97 2.02c.14 3.33 2.94-1.57 0 0m22.17 1.74c1.37 1.92 4.02 1.73 5.79 3.12 2.89 2.11 6.71 1.44 10.08 1.94-.97-1.08-2.08-2.09-3.56-2.29-4.13-.83-8.09-2.46-12.31-2.77z"/><path fill="#d32c2a" d="M605.55 429.95c3.32-.42 6.68-.33 10.03-.3-.1.87-.31 2.62-.41 3.49-3.28-.62-7.06-.8-9.62-3.19zm151.67 3.36c.67.17 2 .51 2.66.68-1.14 1.81-2.62 3.36-4.12 4.88-.31-.38-.94-1.14-1.26-1.52-1.34 1.04-2.68 2.06-4.1 2.98-.45-.65-1.35-1.96-1.79-2.61 3.6.47 6.61-1.59 8.61-4.41zm-415.91 4.12c.2-1.15.15-2.52 1.46-3.04 1.07.64 2.13 1.31 3.17 2.02 1.52.18 3.31-.17 4.51 1.03-3 .97-6.17 1.23-9.14-.01z"/><path fill="#d32c2a" d="M740.15 438.14c2.77-.16 5.88.76 8.14-1.42-.02 1.98 1.02 3.64 2.11 5.21-3.46.53-6.97.6-10.46.54.05-1.45.12-2.89.21-4.33zm49.33-1.22c2.43.75 5.74 0 6.98 2.81-2.13-.43-4.08-.11-5.49 1.62-.22-.08-.68-.25-.9-.34-.21-1.37-.41-2.73-.59-4.09zm-65.93 3.18c1.16-3.51 7.03-2.16 6.3 1.42-2.23.23-4.34-.46-6.3-1.42zm85.98 3.95c4.67-2.56 10.31-6.94 15.71-3.77-1.04.64-2.08 1.28-3.12 1.91-1.27-.77-2.54-1.53-3.81-2.26.32 1.31.67 2.64 1.04 3.96-3.27-.36-6.57-.19-9.82.16zm-43.68 38.22l3.08.28c1 1.19 2.04 2.37 2.95 3.65-.25-.26-.77-.79-1.02-1.06-.2.1-.61.29-.82.38-.4-.27-1.2-.8-1.6-1.06-.71.39-1.42.8-2.11 1.21-.18-1.14-.34-2.28-.48-3.4m1 1.17l.03.79c2.05 1.51 1.81-2.77-.03-.79zm11.24-1.31l3.85.68c-1.64 2.03-4.04 3.05-6.39 3.97-.03-.56-.08-1.68-.1-2.24 1.1-.26 2.22-.51 3.35-.76l-.71-1.65zm4 1.15c1.44-.61 1.91-.21 1.4 1.2-1.46.59-1.93.19-1.4-1.2zm-172.73 2.91c2.87-1.67.21 3.34 0 0zm162.81.95c1.51.62 1.5 1.15-.04 1.61l.04-1.61zm-172.98 4.16c.62.46.62.46 0 0zm-3.93 1.69c1.6-1.06 2.24 1.51.56 1.81-1.59.95-2.12-1.44-.56-1.81zm14.83 12.1c3.01-1.46.06 3.31 0 0zm24.21-.2c3.1-1.24-.18 3.33 0 0zM354 513.02c7.8-4.28 17.02-6.51 25.9-5.51a50.73 50.73 0 0 1-1.69 3.76c.67-.6 1.34-1.18 2.03-1.76.01-.64.02-1.93.03-2.57 8.98-.4 18.12 1.46 25.71 6.4l.8 1.12c9.13 4.28 12.33 15.22 13.76 24.46.86 2.19-1.25 3.54-2.33 5.12-10.09.36-20.07 2.09-30.19 2.04-.42-.29-1.27-.86-1.69-1.15l-.92 1.6c-8.32.95-16.9-.14-25.01 2.38 1.66 6.48 8.53 9.67 14.52 11.01 8.02 1.01 16.64.51 23.67-3.88.48 1.01.97 2.03 1.47 3.06-5.03 2.53-12.13 2.61-14.92 8.24.42.47 1.27 1.41 1.69 1.89-.44.34-1.33 1.01-1.77 1.35 1.45-.2 2.9-.37 4.37-.5l-.04 2.16c-7.19.68-14.46.98-21.61-.21-.14-1.02-.27-2.03-.39-3.04-.03.65-.1 1.95-.13 2.6-2.59-.68-5.19-1.33-7.75-2.07-5-1.57-9.02-5.06-12.58-8.76l1.15-1.79c-.47.24-1.39.72-1.85.96-2.25-4.08-5.19-8.2-5.1-13.06-.64-1.32-1.12-2.72-1.53-4.11.89-.01 2.66-.02 3.55-.03-.41-.22-1.23-.68-1.64-.9.31-.46.93-1.37 1.24-1.83-.31.11-.93.31-1.23.41-.2.34-.58 1.02-.78 1.36-2.41.53-.84-2.35.43-2.75 1.43-.97 2.86-1.95 4.09-3.17-1.95.96-3.82 2.07-5.77 3.04l-.39-2.51 1.96-.64-2.01.03c1.38-9.34 6.64-18.05 14.95-22.75m25.02-.75c-.78 1.22-.5 1.95.84 2.19.79-1.25.51-1.98-.84-2.19m-16.23 13.01c-.63 1.49-1.95 2.43-3.21 3.34-.78 2.9-1.13 5.88-1.31 8.88 2.26-1.13 4.8-1.09 7.27-1.05 6.61-.83 13.34-1.87 20.02-1.14l.8 1.91c-.03-.71-.08-2.11-.11-2.82 4.69-.36 9.39-.73 14.07-1.24-.99-2.7-2.15-5.38-3.94-7.65-2.83-2.52-6.29-4.16-9.43-6.23-1.86.47-3.72.04-5.45-.66-6.61.75-13.92 1.43-18.71 6.66m-17.54 4.01c.61.47.61.47 0 0m39.91 11.02c-1.34 3.03 3.35-.02 0 0m-24.06 18.92c.51.61.51.61 0 0m.19 5.94c.49.62.49.62 0 0zm246.96-56.88c.6.46.6.46 0 0zm10.45 2.43l3.47.28c-1.1 2.21-2.31 4.37-3.81 6.33.06-2.21.19-4.41.34-6.61zm-189.06 5.13c2.32.68 4.64 1.34 6.96 2.02 1.38 9.12-1.58 18.05-2.19 27.09-.32-.69-.64-1.37-.96-2.05-.12-9.14-2.49-18.06-3.81-27.06zm22.63.35c.47.61.47.61 0 0zm240.86.74c1.81 4.6 4.48 8.88 8.16 12.22 2.41.1 5.11-.2 7.23 1.26 2.61 1.84 4.76 4.25 7.37 6.11-2.53 4.29-3.16 9.39-5.83 13.61-.64-1.49-.51-3.36-1.67-4.58-1.72-1.12-3.73-1.67-5.61-2.44-1.41 2-2.41 4.23-2.74 6.67l2.76.16c.49-2 .94-4.01 1.44-6.01 1.04 1.13 2.08 2.27 3.12 3.43-1.73 4.89-.25 10 .95 14.82-2.55-.01-5.09-.04-7.62-.12.26-.46.77-1.36 1.03-1.81-5.41 1.93-10.96-.76-15.74-3.18-6.8-3.77-9.4-11.97-9.21-19.33-.96-1.28-1.9-2.56-2.85-3.83.59.25 1.76.74 2.34.99 1.66-4.73 5.55-8.05 9.29-11.15.14-.95.3-1.89.47-2.83-.01 1.29.01 2.6.06 3.91 1.33.46 2.66.95 3.99 1.47-.95 1.75-1.39 3.67-1.43 5.67 4.13-2.25 1.83-6.98 1.02-10.42 1.46-.61 2.92-1.2 4.4-1.78-.23-.71-.69-2.13-.93-2.84m-.85 16.28c.47.59.47.59 0 0m6.98 2.02c.61.51.61.51 0 0m1.86 3.82c-.5 1.61.06 2.25 1.66 1.92.47-1.62-.08-2.26-1.66-1.92zM492.2 519.24c.56.54.56.54 0 0z"/><path fill="#d32c2a" d="M696.56 519.1c6.67-.78 13.72-.44 19.82 2.64 2.26 1.19 5.09 2.33 5.69 5.14l.26.66.73.07c.47-.34 1.43-1.02 1.91-1.36-1.07 1.66-2.45 3.19-2.6 5.26-.31 1.19-.68 2.37-1.08 3.54.74-6.41-3.54-1.35-5.45-.27-1.21-2.81-2.99-5.39-5.85-6.67-2.91-1.31-4.81-3.85-5.84-6.79-1.63.48-3.17 1.74-4.93 1.52-1.08-1.1-1.9-2.42-2.66-3.74zm33.75 11.73c-1.09-1.69 1.51-2.95 2.94-2.69-.59 1.09-1.31 2.15-2.35 2.86l-.59-.17zm36.68-1.83l.5-.13c.68 1.15 1.54 2.4 1.48 3.82-1.58.22-2.75-2.42-1.98-3.69zm-159.63 6.24c2.81-.47.38 2.93-1.26 1.96-1.7-.62.26-2.12 1.26-1.96zm108.81 3.34c1.6-.02 3.2-.04 4.81-.04-.03.54-.11 1.63-.15 2.17-1.25 5.93-2.12 12.04-4.41 17.68-.87 2.82-4.18 2.84-6.51 3.61-1.76-8.39 2.95-16.08 6.26-23.42zm167.57 17.4c.77.66 1.45 1.38 2.22 2.1.45-.24 1.36-.72 1.81-.96-3.03 4.65-5.91 9.39-8.43 14.34-.47-.08-1.41-.24-1.88-.31-1.27-1.76-2.86-3.19-5.03-3.61 1.01-1.19 1.97-2.43 2.66-3.83 4.89.8 6.43-4.55 8.65-7.73zm-491.2 9.9c3.49-2.06 7.25-3.71 10.13-6.67-.64 1.41-1.23 2.81-1.74 4.29l1.49-.26c-3.28.95-6.57 1.85-9.88 2.64zm307.59-1.79c.67.1 2.02.29 2.7.38l-.2.15c-1.64.46-2.04 2.22-1.91 3.71.52.1 1.56.29 2.07.39-3.02.99-2.72-2.75-2.66-4.63zm-275.95 1.15c.63.44.63.44 0 0zm-29.93 5.73c2.01-2.32 5.12-2.9 8.05-2.62-2.1 2.08-5.28 2.29-8.05 2.62zm-1.78.08c2.88-1.64.25 3.33 0 0zm333.57 1.6c2.55.13 5.11-.13 7.55-.95-.65 2.14-1.41 4.24-2.15 6.35-.45.07-1.34.2-1.78.27-1.13-1-2.26-1.95-3.41-2.89-.05-.69-.16-2.08-.21-2.78zm-287.8 3.67c.57.49.57.49 0 0zm468.25 2.58c2.03.38-.39 3.22-1.48 1.78.37-.45 1.11-1.33 1.48-1.78zm-672.84 3.39c3.73-.43 4.06 5.52 1.23 6.82-2.48-1.05-.69-4.71-1.23-6.82zm264.4 3.95c2.02-.17 4.05.02 6 .62.29 1.01.59 2.03.89 3.05-2.15-.01-4.28-.02-6.41-.15-.18-1.18-.34-2.36-.48-3.52m3.99 2.03c-.65-.38-1.95-1.15-2.6-1.54-2.24 1.68 2.22 3.86 2.6 1.54zm-254.47 3.26c7.06 5.43 4.5 15.31 4.78 22.97-1 0-3.01-.02-4.01-.03.67-3.11 1.47-6.22 1.3-9.42-2.46-.18-3.75 1.88-5.01 3.62-4.3-2.07-3.22-7.29-3.78-11.18 3.1-.84 4.97-3.49 6.72-5.96zm623.07 3.3c2.25-1.96 1.67 2.04.51 2.95-1.26-.05-1.01-2.21-.51-2.95z"/><g fill="#fbfbfc"><path d="M325.18 440.25c1.09.95 2.09 2.12 2 3.69.39 4.62.02 9.27-.64 13.85-2.39-5.46-1.85-11.74-1.36-17.54zm482.94 4.29c.35-.12 1.06-.37 1.41-.49 3.25-.35 6.55-.52 9.82-.16l1.28.95c-4.18-.15-8.35-.27-12.51-.3zm-159.82 1.03c.56.23 1.02.66 1.63.87-3.2 1.01-5.84 3.07-8.29 5.28-.2-.36-.6-1.07-.8-1.42 1.38-.85 2.71-1.75 4.08-2.61 1.12-.71 2.28-1.37 3.38-2.12zm-103.91 6.41c2.18.87.75 3.53 1.04 5.28.32.2.96.62 1.28.83-.49.25-1.48.74-1.97.99.41 2.25.47 4.52.09 6.78-.34-.1-1.02-.28-1.36-.37.23-.67.47-1.34.72-2-.72-3.8.29-7.68.2-11.51zm-219 6.01c.66.41 1.32.83 1.98 1.25-.41 2.56-.57 5.16-.51 7.76.46.27 3.24 1.19 1.27 1.84-.59.34-1.79 1.02-2.38 1.35-.18-4.06-1.46-8.17-.36-12.2zm298.6 4.07c-.33-1.63 2.08-3 3.52-2.66.04 1.45-2.09 3.15-3.52 2.66zm186.39-2.67c1.76.41.03 2.55-1.16 1.93-1.75-.5 0-2.4 1.16-1.93zm-16.27 1.59c2.32-.07 4.77-1.32 6.89.16-3.15.7-6.34 1.19-9.51 1.78-.08.58.04 1.14.35 1.68-.34.22-1.02.68-1.36.9-.27-.47-.81-1.42-1.08-1.9-.27-.19-.83-.58-1.11-.77-8.2 1.75-16.06 4.89-24.33 6.35-2.79.91-5.59 1.85-8.2 3.2 5.43.49 10.75-1.23 16.17-.75 2.92.26 5.74-.65 8.61-1.03.03-.52.1-1.57.14-2.09.74.27 1.48.53 2.25.8-2.26.81-3.82 2.72-5 4.73.63-.11 1.88-.34 2.51-.45 2 .23 3.99.48 5.98.9-3.58 1.57-7.39.2-11.02-.3.06.97.17 2.91.23 3.88 2.49.31 5.22.19 7.36 1.78-1.15-.11-3.43-.32-4.57-.42l-.25 1.94c2.14.17 4.25.56 6.37.98-.01-.65-.01-1.95-.02-2.6.77 1 1.5 2 2.28 3.03 1.6-.5 3.32-1.7 4.89-.38-.19.94-.4 1.87-.64 2.8-2.9-1.24-5.54.95-8.26 1.67 2.82.94 7.21 1.37 8.86-1.68 1.13.16 2.27.33 3.43.51-.47-.39-1.39-1.18-1.85-1.57 4.38-1.54 9.68-.97 13.57 1.56-2.94-.53-5.78-1.6-8.79-1.6-.44.52-1.32 1.57-1.77 2.09.83.47 2.48 1.42 3.31 1.89.05-.49.16-1.47.21-1.96 4.79.97 9.85.35 14.5 1.99-4.86 1.41-9.74.01-14.5-1 1.97 2.2 5.13 2.35 7.72 3.42-4.41 1.44-8.43-1.5-12.47-2.8-1.31.47-2.6.96-3.89 1.44.07.66.21 1.98.29 2.64-2.2.89-4.61 1.68-5.64 4.02-3.35 1.08-6.72 2.07-10.06 3.16-.75 1.61.13 2.87 1.33 3.91-.2 1.69-.38 3.38-.55 5.08-1.53 2.17-3.49 5.48-1.05 7.75-.12 9.08.6 18.16-.07 27.23-2.17 3.01-1.09 6.93.01 10.14.35 3.86.05 7.76.05 11.64l-2.73.96c-7.21.62-14.44.23-21.66.31.98.6 1.98 1.19 3.01 1.77-.6.13-1.79.37-2.38.5-2.22-3.19-3.24-6.94-3.03-10.8l-.35-.41c.24-2.61.31-5.22.4-7.83-1.47-.17-3.11-.23-2.8-2.17l1.09 1.64c1.77-1.62 1.7-3.99 1.74-6.2-.63.65-1.9 1.95-2.54 2.6.12-.53.37-1.58.49-2.11-1.34-.87-2.66-1.76-3.94-2.68 1.96.92 3.99 1.92 5.92.28-.36-6.89.02-13.79.87-20.63-1.86-9.06-.63-18.38-.97-27.57-.33-.39-1-1.18-1.34-1.57-.06-2.83-.36-5.64-.59-8.45l-3.1-.4c1.22-1.06 2.84-.84 4.33-.99.39-3.72.24-8.92 4.56-10.42 7.97-1.98 15.66-4.96 23.55-7.19 6.07-.68 12.02-2.27 18.15-2.39m-28.26 21.29c.14 1.12.3 2.26.48 3.4.69-.41 1.4-.82 2.11-1.21.4.26 1.2.79 1.6 1.06-.23.99 1.07 5.27 2.09 3.23 1.54-.46 1.55-.99.04-1.61l-.29-.94c-.91-1.28-1.95-2.46-2.95-3.65l-3.08-.28m12.24-.14l.71 1.65c-1.13.25-2.25.5-3.35.76.02.56.07 1.68.1 2.24 2.35-.92 4.75-1.94 6.39-3.97l-3.85-.68m4 1.15c-.53 1.39-.06 1.79 1.4 1.2.51-1.41.04-1.81-1.4-1.2M766.99 529c-.77 1.27.4 3.91 1.98 3.69l-.08 2.36c1.09-.66 2.19-1.33 3.29-1.99-.3-1.01-.58-2.02-.84-3.02-1.29-.4-2.57-.79-3.85-1.17l-.5.13m-16.03 23.18c.72 1.25 1.61 2.38 2.69 3.39-2.19.58-4.69 2.68-2.46 4.76.77-1.84 1.48-4.02 3.82-4.23-.81-1.79-2.09-3.32-4.05-3.92zm53.19-91.84c.64.41.64.41 0 0zm-281.87 2.96c1.19-.8 3.02-.79 4.22 0-.28 1.36-3.99 1.41-4.22 0zm11.03-.13c1.2-.91 1.92-.71 2.17.61-1.22.91-1.95.71-2.17-.61zm-271.68 16.25c-.85-4.72-1.86-9.84-.25-14.51 2 4.49 1.58 9.9.25 14.51zm79.5-13.29c1.28.27 1.51 1.05.69 2.33-1.27-.3-1.5-1.07-.69-2.33zm192.24-.05c1.18-.9 1.87-.66 2.05.7-1.2.9-1.88.67-2.05-.7zm59.02 3.05c5.21-.66 10.46-.07 15.7.05 4.09.17 8.22-.16 12.26.73-.43 4.1-.15 8.38-1.69 12.28.22.39.65 1.18.87 1.57-.83 8.76-.64 17.58-.87 26.37l3.51.44c1.88-3.14 3.76-6.31 6.25-9.02 9.9-1.79 20.01-1.03 29.89.57-6.99 9.16-14.13 18.21-21.23 27.29 2.03 4.31 2.74 9.16 5.27 13.24 1.34 2.73 2.1 5.72 3.65 8.38 3.14 5.78 4.85 12.18 7.85 18.03 1.51 3.32 2.86 6.7 4.24 10.08-5.53 1.83-11.39 1.31-17.1 1.27-4.1-.03-8.02-1.3-11.78-2.8-4.27-9.6-7.77-19.52-12-29.13-.86 6.93-1.33 13.9-1.93 20.86.48.35 1.43 1.07 1.9 1.42l-1.63.27c-.16 2.67.81 6.03-1.56 8.02-1.3 1.3-3.33.48-4.94.66-1.19.82-2.39 1.65-3.61 2.42l1.99-2.91c-.56-.13-1.66-.39-2.22-.52.8-1.09 2.05-1.74 3.05-2.62-1.38.66-2.81 1.1-4.29 1.32 0 1.01.01 2.01.06 3.03-4.24-1.49-5.12 4.26-8.27 5.89.17-2.83 2.62-4.47 4.39-6.34-2.03-2.13-5.23-1.07-7.79-1.23.22 2.77 3.31.89 4.98 1.33-1.36.61-2.74 1.16-4.11 1.72.29 1.61.67 3.24 1.26 4.79.08.55.22 1.65.29 2.2 1.51 1.16 4.25 1.74 3.85 4.17 3.21 1.14 6.46 2.24 9.5 3.83-3.67.03-6.61-2.65-10.13-3.28-2.05.05-3.45 1.85-4.99 2.96-2.03-.13-4.13.02-6.08-.64-1.72-.74-1.77-2.91-2.36-4.43-1.07-3.47 3.04-5.23 4.42-7.9.65-.82 1.27-1.66 1.85-2.53-1.14-4.48-4.3-9.59-1.5-14.04-.32-1.62-.66-3.22-1.07-4.8 1.68-1.23 3.37-2.46 4.99-3.77-1.62.64-3.23 1.32-4.83 2 1.53-14.44-1.29-29.53 3.55-43.49-.56-.14-1.68-.43-2.24-.58l1.59-.27c.23-2.11.95-4.09 1.76-6.03-2.07-.21-4.12-.35-6.17-.58 1.4-.12 2.8-.22 4.21-.29.08-3.89 4.53-3.57 7.3-3.68-2.67-.88-5.5-1.04-8.27-.65-.08-2.17.46-4.49-.57-6.5 1.02-.77 2.03-1.54 3.04-2.31l-2.3-.32c-.01-.65-.04-1.96-.05-2.62.34-.45 1-1.37 1.33-1.83-1.02-3.3-2.45-6.69-1.71-10.21.31-4.08 2.53-7.74 2.49-11.87m16.97 17.06c.21 3.34 2.87-1.67 0 0m-10.17 5.11c.62.46.62.46 0 0m-3.93 1.69c-1.56.37-1.03 2.76.56 1.81 1.68-.3 1.04-2.87-.56-1.81m14.83 12.1c.06 3.31 3.01-1.46 0 0m24.21-.2c-.18 3.33 3.1-1.24 0 0m-26.05 3.4c.6.46.6.46 0 0m10.45 2.43c-.15 2.2-.28 4.4-.34 6.61 1.5-1.96 2.71-4.12 3.81-6.33l-3.47-.28m-11.34 24.52c-1-.16-2.96 1.34-1.26 1.96 1.64.97 4.07-2.43 1.26-1.96z"/><path d="M787.61 469.36c2.78-.08 5.59.15 8.37-.32-.61.7-1.21 1.42-1.8 2.14-.65.52-1.3 1.05-1.93 1.58.1-.45.31-1.34.41-1.79-1.72-.48-3.41-.93-5.05-1.61zm-263.52 4.84c2.56-2.85 6.41-3.58 9.91-4.66-.2 5.41-.83 10.79-1.49 16.17-.13 2.09-.08 4.2.06 6.3 3.2.25 6.39.62 9.59.95.19-7.5.63-15.01 1.47-22.46 1.65 3 .29 6.41-.03 9.55-.43 4.4-.1 8.84-.6 13.25 2.69-.37 5.39-.65 8.12-.78-2.99 5.32-7.1 9.89-10.03 15.24.29.49.87 1.47 1.17 1.96-.55 2.04-.88 4.13-1.19 6.23.56.23 1.67.71 2.23.95-.74.02-2.22.08-2.96.11.2-3.16.31-6.31.64-9.45-2.68.01-5.34-.32-8.01-.34-1.59-.04-1.8 1.62-2.1 2.79-.65 3.66.2 7.4-.33 11.08-.81 6.6-1.55 13.22-1.79 19.88 1.36 2.74.63 5.8.34 8.69-.48-.58-.96-1.15-1.42-1.72-.36.49-1.07 1.46-1.42 1.95 1.12-.02 2.25-.03 3.39-.02.1.88.3 2.63.39 3.51-1.52-.04-3.04-.08-4.56-.11.3-.62.89-1.85 1.19-2.46-.61.85-1.22 1.67-1.8 2.54-4.91-.15-9.83-.13-14.73-.03-.81-15.53.29-31.07 1.14-46.57-3.65-.66-7.35-1.11-11.06-.92.6-4.89 1.35-9.82 3.28-14.39 3.27.65 6.69.8 9.72-.79-.17-1.86-.46-3.72-.31-5.58 1.61-2.65 3.81-4.89 5.96-7.1-1.97 1.47-3.96 2.9-5.97 4.31.1-1.72.23-3.42.36-5.12 3.41-1.59 7-3.05 10.84-2.96zm44.49-2.38c5.55-1.64 11.2.67 15.91 3.52 1.65 1.89.52 5.2-1.41 6.55-4.88 3.26-11.28 3.31-16.72 1.57-3.19-1.01-5.12-3.88-7.06-6.39 1.95-3.34 5.92-4.06 9.28-5.25zm-227.13.08c1.34-.39 1.79.14 1.36 1.59-1.35.37-1.8-.16-1.36-1.59zm446.96.18c1.88.91 3.78 1.78 5.71 2.62-1.88-.06-3.76-.09-5.63-.05l-.08-2.57zm19.92 1.91c2.87-1.59.26 3.35 0 0zm-329.82.9c1.15.8 2.63 1.65 2.79 3.22-.12 1.77-1.01 3.37-1.59 5.03-.19 1.28-.39 2.57-.62 3.86.16.87.33 1.74.51 2.62l-1.47.24c.89-4.97.16-9.97.38-14.97zm-152.22.34c3.99 3.81 1.7 9.97 2.68 14.84-2.04 6.5.03 13.55-.55 20.27-2.27-1.71-.98-5.1-2.56-7.34.26-3.36 1.28-6.77.44-10.13-.73-2.95-.08-5.97.02-8.95-2.18-2.53-.17-5.83-.03-8.69zm457.35.8c1.82.1 3.66.24 5.5.41-.74.25-2.23.77-2.98 1.02-.14.48-.44 1.44-.58 1.92l-2.3-.75 2.46-1.62-2.1-.98zm-396.3 3.1c-.36-1.43.14-2.01 1.49-1.73.34 1.41-.16 1.99-1.49 1.73zm-126.43.35c3.74 1.44-.73 6.73 3 8.58-.91.42-1.82.85-2.72 1.28-.08-3.29-.76-6.57-.28-9.86zm462.96 2.99c3.99-2.31 8.7-1.36 13.08-1.63 2.22.01 4.71-.81 6.6.82-4.19.31-8.43-.04-12.57.76-2.35.54-4.75.37-7.11.05zm-313.56-1.24c.51.6.51.6 0 0zm269.17 1.06c3.64-.19 7.58 1.23 10.75-1.26l2.16 1.76c-4.1.83-9.06 1.5-12.91-.5zm18.33.06c5.77-2.65 12.33-.8 18.44-.92-2.18 2.29-5.64.77-8.38 1.58-2.79.69-5.65.36-8.46.12-.54-.27-1.07-.53-1.6-.78zM810 481.07c1.39-.54 1.9-.11 1.51 1.31-1.41.51-1.91.08-1.51-1.31zm-151.28 2.48c1-.62 1.96-1.49 3.23-1.46 5.42-.42 10.89-.13 16.3.44-6.31 1.84-13.05 1.43-19.53 1.02zm-328.57.77c3.37.1-1.54 2.94 0 0zm140.88 2.06c3.3-.11-1.33 3.1 0 0zm19.51 9.4c.05-2.36-.1-4.8.97-6.97.38 2.3.36 4.65.16 6.98-.28 0-.85-.01-1.13-.01zm-13.81-3.53c3.09-1.78 6.92-.08 10.31-.77-.48.72-.94 1.45-1.4 2.19-1.89-.44-3.79-.84-5.68-1.23.52 1.69.04 3.36-.57 4.94-.25-1.6-.47-3.2-.65-4.79-.5-.09-1.51-.25-2.01-.34zm181.56-1.31c3.04-1.44-.08 3.34 0 0zm-211.97 1.09c1.36-.25 1.84.31 1.45 1.69-1.39.24-1.88-.32-1.45-1.69zm234.88.29c.6.47.6.47 0 0zm-254.4 4.86c0-2.97 2.78-3.68 5.12-4.25-1.85 1.24-3.52 2.71-5.12 4.25zm258.43-3.95c.51.58.51.58 0 0zm-423.27.22c2.42 2.76 1.69 6.53 1.91 9.89 3.05.4 6.16-.06 9.18.67 4.1.88 8.54.66 12.21 3 1.39 7.71.67 15.56.29 23.33.26.28.77.85 1.03 1.13-1.19 2.64-.97 5.9.78 8.25 4.53-7.15 6.56-15.46 10.24-23.01 1.05-2.69 1.62-5.54 2.69-8.22 2.09-1.12 4.5-.67 6.74-.41 5.91.78 11.87 1.38 17.64 2.93-1.8 4.77-5.07 8.79-7 13.5-1.88 4.85-4.64 9.28-6.8 14 .76-.05 2.29-.16 3.06-.21-4.38.66-6.03 4.9-7.23 8.61.85.15 2.54.44 3.39.58-1.3.12-2.6.21-3.88.33-1.25 3.25-2.79 6.39-3.81 9.73-2.05 1.89-2.19 4.84-3.73 7.06-2.51 3.96-4.62 8.18-6.38 12.54 1.35.15 2.69.34 4.02.57-1.42.35-2.88.57-4.34.36-2.06 2.47-4.29 4.83-5.77 7.72-1.54-.35-2.32-1.74-3.2-2.89 1.08-.09 3.26-.26 4.34-.34-1.64-.22-3.3-.3-4.95-.39l.07 1.59c-4.55-.66-9.09-1.9-13.69-.82-2.31 1.23-4.88 1.72-7.46 2.05.64-3.64 1.79-7.27 1.32-11.01-1.03-7.77.35-15.61-.15-23.42-1.53-.03-3.05-.02-4.57-.07 1.46-.07 2.93-.12 4.39-.14l.03-1.73c-2.86-.42-5.74-.75-8.62-.85l.17-.78c2.8.07 5.6.14 8.4.4.1-4.99.79-10.02-.54-14.92.11-.34.33-1 .44-1.34l2.23.6c-.42-.98-.91-1.92-1.44-2.81-.78-4.2.26-8.79-1.28-12.99.99-7.5-1.28-15.1.27-22.49zm83.31.77c.49.61.49.61 0 0zm467.11-.01c1.16-.94 1.86-.74 2.1.61-1.19.94-1.89.74-2.1-.61zm-465.88 4.77c.75 2.13 1.35 4.33 2.33 6.37 3.45.2 6.89-.14 10.32-.5.4.13 1.19.41 1.59.55 4.09-1.67 8.53-1.07 12.82-1.08 2.43-.84 5-1.12 7.56-1.32.89.34 1.79.67 2.7 1.01 3.49-3.07 8.8-1.59 13.05-1.46.48 1.16.99 2.37 1.5 3.54-.24-1.17-.49-2.32-.75-3.47l2.9.04c-.53-.25-1.6-.74-2.13-.98v-2.96c.42.84.84 1.68 1.26 2.53 1.43.1 2.87.21 4.31.33 7.45-1.66 15.11-1.92 22.69-2.52 1.01 4.64 1.75 9.34 2.47 14.03 5.22-.86 10.75-4.19 15.97-2 .63.02 1.28.05 1.93.09-.67-.32-2.01-.95-2.69-1.26 4.77-2.05 9.96-2.66 15.02-3.62-.62 4.2-1.09 8.42-1.08 12.67 6.95-1.86 13.18-5.54 20.03-7.66.43.47 1.27 1.42 1.7 1.9.12-3.55.2-7.09.45-10.63.48 2.8.9 5.6 1.25 8.42 1.27.15 2.55.32 3.82.49 1.44.02 2.88.05 4.32.11.11-2.07.35-4.14 1.19-6.05.15 2.87.11 5.76-.03 8.65.49-.44 1.46-1.33 1.95-1.77 2.35 1.23 4.77 2.35 7.31 3.15.13.7.41 2.08.54 2.77-3.01 3.98-7.91 5.85-10.87 9.81-.13-.72-.24-1.42-.36-2.13-5.53-1.58-10.89-3.78-16.55-4.92-2.3-.39-4.69-1.04-6.98-.35-2.52.69-4.39 2.6-6.32 4.23-.37-.33-1.12-1.01-1.5-1.35 1.25 4.86-2.86 8.57-4.4 12.79-1.07 5.45-.82 11.11-2.13 16.53-.47.31-1.4.93-1.86 1.24.5.03 1.52.1 2.03.13-1.24 9.29-2.13 18.62-3.2 27.93-5.9.47-11.79-.3-17.59-1.32.2-.43.59-1.3.79-1.73-.52.07-1.57.23-2.09.31.29-2.13.57-4.25.85-6.36-15.17 1.88-30.44 2.94-45.67 4.22-9.06-.12-17.9 2.38-26.96 2.34-3.26.2-6.79-.13-9.75 1.51-.16.35-.48 1.06-.64 1.41 2.03.43 4.13.52 6.17.96-2.48-.06-4.96-.09-7.43.04.29-.77.53-1.54.73-2.32-1.71-1.14-4.78.35-7.02.41.46-.29 1.37-.87 1.82-1.15-.05-1.65-.11-3.31-.15-4.94-.61.38-1.83 1.15-2.44 1.54 3.15-5.01-.25-10.93-1.12-16.15-1.99-12.87-4.41-25.67-6.79-38.46 1.14-1.25 2.73-1.93 4.31-2.43-.12.83-.37 2.5-.49 3.33.37-.69 1.1-2.08 1.47-2.78.21.32.64.94.85 1.26 1.02-.09 3.07-.27 4.09-.35-1.1-.39-2.18-.77-3.26-1.14 1.59-.75 3.36-.77 5.08-.94-.85-.1-2.55-.31-3.4-.41.34-1.57.71-3.12 1.07-4.67l2.22.34c-1.56-.57-3.13-1.09-4.7-1.59.11 1.26.77 2.37.97 3.61.08.48.25 1.43.34 1.91-.65-.05-1.93-.14-2.57-.19-.14.52-.4 1.57-.54 2.1-.7-.31-2.1-.91-2.8-1.22l-2.63 2.31c-.44-4.84-.23-9.86-2.57-14.29 2.8-.19 5.61-.16 8.41-.06.65-.36 1.31-.71 1.98-1.05 2.03.21 4.06.27 6.1.4 1.77-1.32 2.69-3.06 1.89-5.29-2.05.27-4.09.57-6.14.85 1.87-.48 3.73-.94 5.61-1.39l-.16-1.9m7.5 14.04c-8.31 4.7-13.57 13.41-14.95 22.75l2.01-.03-1.96.64.39 2.51c1.95-.97 3.82-2.08 5.77-3.04-1.23 1.22-2.66 2.2-4.09 3.17-1.27.4-2.84 3.28-.43 2.75.2-.34.58-1.02.78-1.36.3-.1.92-.3 1.23-.41-.31.46-.93 1.37-1.24 1.83.41.22 1.23.68 1.64.9-.89.01-2.66.02-3.55.03.41 1.39.89 2.79 1.53 4.11-.09 4.86 2.85 8.98 5.1 13.06.46-.24 1.38-.72 1.85-.96l-1.15 1.79c3.56 3.7 7.58 7.19 12.58 8.76 2.56.74 5.16 1.39 7.75 2.07.03-.65.1-1.95.13-2.6.12 1.01.25 2.02.39 3.04 7.15 1.19 14.42.89 21.61.21l.04-2.16c-1.47.13-2.92.3-4.37.5.44-.34 1.33-1.01 1.77-1.35-.42-.48-1.27-1.42-1.69-1.89 2.79-5.63 9.89-5.71 14.92-8.24-.5-1.03-.99-2.05-1.47-3.06-7.03 4.39-15.65 4.89-23.67 3.88-5.99-1.34-12.86-4.53-14.52-11.01 8.11-2.52 16.69-1.43 25.01-2.38l.92-1.6c.42.29 1.27.86 1.69 1.15 10.12.05 20.1-1.68 30.19-2.04 1.08-1.58 3.19-2.93 2.33-5.12-1.43-9.24-4.63-20.18-13.76-24.46l-.8-1.12c-7.59-4.94-16.73-6.8-25.71-6.4-.01.64-.02 1.93-.03 2.57-.69.58-1.36 1.16-2.03 1.76a50.73 50.73 0 0 0 1.69-3.76c-8.88-1-18.1 1.23-25.9 5.51m75.64 2.83c1.32 9 3.69 17.92 3.81 27.06.32.68.64 1.36.96 2.05.61-9.04 3.57-17.97 2.19-27.09-2.32-.68-4.64-1.34-6.96-2.02m22.63.35c.47.61.47.61 0 0m39.93 3.04c.56.54.56.54 0 0m-89.53 39.97c-2.88 2.96-6.64 4.61-10.13 6.67 3.31-.79 6.6-1.69 9.88-2.64l-1.49.26c3.11-1.33 5.17-4.03 7.1-6.65-1.91.35-4.1.72-5.36 2.36m21.51 6.03c.63.44.63.44 0 0m-29.93 5.73c2.77-.33 5.95-.54 8.05-2.62-2.93-.28-6.04.3-8.05 2.62m-1.78.08c.25 3.33 2.88-1.64 0 0m45.77 5.27c.57.49.57.49 0 0zm27.01-76.06c.59.56.59.56 0 0zm-200.02.98c.63.51.63.51 0 0zm224.97.05c1.4-.03 1.49 2.41.72 3.23-1.35-.09-1.52-2.41-.72-3.23zm4.7-.05c3.33-.04-1.47 3.04 0 0zm184.77 3.55c2.43-1.22 5.08-1.85 7.67-2.64l-.03.18c-1.01 2.86-5.18 2.01-7.64 2.46z"/><path d="M442.28 503.24c.57.58.57.58 0 0zm-13.11 1.2c1.47-1.18 2.3 1.6 1.2 2.43-1.47 1.32-2.32-1.64-1.2-2.43zm134.45 1.96c4.33-1.47 8.88-2.19 13.4-2.71 1.58-.41 2.79.6 3.9 1.55-.54.84-1.64 2.52-2.18 3.36 1.08.18 2.17.37 3.26.57-.69.22-2.08.66-2.78.87.01 2.14-.16 4.28-.53 6.4l2.51-.12c-.68.21-2.04.63-2.71.84.55 2.09 1.62 3.97 2.83 5.75l-1.94-.45c-.14 3.39-.43 6.77-.86 10.14l.96.01c-.34 2.82-.18 5.95 2.72 7.35-.77.08-2.32.25-3.09.33l-.24 3.07c.43.13 1.31.4 1.75.53-1.6.83-3.22 1.61-4.79 2.47.7-.24 2.09-.73 2.78-.97.09 5.15-.49 10.31-.43 15.45 2.44 2.86 6.36 3.6 9.68 5.01-1.79 3.76-6.77 1.27-10.02 1.72-.9 1.17-1.78 2.36-2.66 3.55-1.69-1.23-3.34-2.57-5.21-3.5-5.31-.46-10.62-1.79-15.97-1.16-2 .18-4.01.13-6 .02 2.44-3.43 7.04-4.12 10.32-6.56-.18-1.23-.35-2.46-.53-3.67.62-5.41-.65-11.29 2.35-16.18l-.24-3.11c-1.98-3.39-.03-7.29-.13-10.91-.07-4.03.37-8.48-1.68-12.09-.84-1.44-2.31-.59-3.53-.33.81-2.56-3.16-1.67-4.38-2.59-.2-3.5 3.99-2.69 6.04-4.3 2.45.35 5.01.49 7.4-.34zm-94.82-1.18c3.17-.05 6.3.56 9.47.73-.31.48-.92 1.44-1.23 1.92-2.74-.92-5.6-1.46-8.24-2.65zM717.28 510c3-1.56.08 3.31 0 0zm-391.09 1.86c.85-.29 1.71-.57 2.57-.85-.2 1.41.82 3.54-.98 4.22a7.462 7.462 0 0 0-1.59-3.37zm167.89-.56c3.03-1.46.15 3.3 0 0zm-115.06.97c1.35.21 1.63.94.84 2.19-1.34-.24-1.62-.97-.84-2.19zm209.27-.12c.5.6.5.6 0 0zm106.6.79c1-.44 2.03-.83 3.07-1.17 10.71-.44 21.5.7 31.71 4.04 1.04 1.21 2.1 2.39 3.21 3.56.26-.87.8-2.62 1.06-3.5 1.68 2.09 3.3 4.25 4.52 6.66-.9.12-2.72.38-3.63.5.12 1.87-.54 3.58-1.58 5.11-1.43-.26-4.03 1-2.94 2.69l.59.17 1.69.44c-1.01.43-2.02.88-3.01 1.33 1.75.39 3.84 1.71 5.46.23 3.42-2.38 2.27-7.02 3.42-10.47.91 1.6 1.82 3.22 2.91 4.71-.65 4.72-2.81 9.14-2.83 13.95-.05 2.93-.7 5.82-1.56 8.61-.48-.41-1.44-1.24-1.92-1.65-1.88-1.7-3.76-3.38-5.6-5.1-1.23.52-2.49 1.03-3.71 1.56-2.54-2.35-3.52-5.75-4.15-9.03.26-.28.8-.85 1.06-1.13-.07-.74-.22-2.2-.29-2.94.15-2.07 1.53-3.6 2.6-5.26.17-.28.51-.85.68-1.14-1.44-.42-2.99.45-3.58 1.77-.6-2.81-3.43-3.95-5.69-5.14-6.1-3.08-13.15-3.42-19.82-2.64-.83-1.98-1.43-4.04-1.67-6.16m35.58 6.64c-.88 2.63-2 5.28-1.72 8.13 3.73-1.06 2.33-5.4 1.72-8.13zm55.06-7.25c2.18-1.15 1.96 2.29.18 2.52-2.15 1.03-1.68-2.16-.18-2.52zm-111.41.94c.59.58.59.58 0 0z"/><path d="M678.92 517.07c4.43-1.02 8.79-2.32 13.21-3.43.29 1.1.62 2.2 1 3.3.24.71.7 2.13.93 2.84-1.48.58-2.94 1.17-4.4 1.78-.47-1.98-.74-4-1.08-5.99-1.11 1.64-2.39 3.3-2.56 5.36-.17.94-.33 1.88-.47 2.83-3.74 3.1-7.63 6.42-9.29 11.15-.58-.25-1.75-.74-2.34-.99.95 1.27 1.89 2.55 2.85 3.83-.19 7.36 2.41 15.56 9.21 19.33 4.78 2.42 10.33 5.11 15.74 3.18-.26.45-.77 1.35-1.03 1.81 2.53.08 5.07.11 7.62.12l.37 1.29c.49.09.99.16 1.51.2l-.28-1.68c2.33-.77 5.64-.79 6.51-3.61 2.29-5.64 3.16-11.75 4.41-17.68 2.07 4.65 6.75 7.36 11.6 8.23.22 1.59.35 3.2.7 4.79.84.12 2.52.37 3.36.5-.25 1.28-.48 2.56-.71 3.86.72.22 2.14.67 2.85.9l-2.98.44c-.83 3.75-1.54 7.53-1.81 11.37-.06.23-.19.68-.25.9-2.44.82-5 1.08-7.55.95-1.57-.23-3.2-.41-4.59-1.18-1.4-1.36-2.16-3.21-3.21-4.81-.49.76-.98 1.53-1.46 2.31-1.24-.9-2.52-1.75-3.78-2.58.59-1.73.47-3.45-.22-5.1-.98 1.9-2.93 3.57-2.74 5.91.35.52 1.05 1.57 1.4 2.09-7.95 2.39-16.44 2.6-24.58 1.11-2.74-.67-5.45.7-8.17.25.81-.25 2.45-.74 3.26-.99-9.72-3.31-20.73-9.46-22.69-20.49-.91-.32-4.49-.36-3.18-1.66l.6-.08c.68.11 1.36.08 2.04-.09.37-4.47 1.2-8.88 2.05-13.27.76-4.25 4.01-7.44 7.06-10.23 3.36-2.72 6.73-5.83 11.09-6.77m21.21 47.02c-.06 1.88-.36 5.62 2.66 4.63l2.46.44c-.45-1.47-.31-3.44-1.75-4.37l-.87-.17.2-.15c-.68-.09-2.03-.28-2.7-.38zm-373.99-42.02c.36-2.18.66-4.36 1.06-6.52 1.82 1.21.89 3.29 1.12 5.07.8 3.51-.98 7.06.36 10.51-.37-.14-1.11-.42-1.47-.57-.48-2.62-.57-5.3-1.09-7.91-.69.23-2.07.67-2.76.9l-1.27-1.21 4.05-.27zm36.65 3.21c4.79-5.23 12.1-5.91 18.71-6.66 1.73.7 3.59 1.13 5.45.66 3.14 2.07 6.6 3.71 9.43 6.23 1.79 2.27 2.95 4.95 3.94 7.65-4.68.51-9.38.88-14.07 1.24.03.71.08 2.11.11 2.82l-.8-1.91c-6.68-.73-13.41.31-20.02 1.14-2.47-.04-5.01-.08-7.27 1.05.18-3 .53-5.98 1.31-8.88 1.26-.91 2.58-1.85 3.21-3.34zm428.79.46c-1.56-2.17-3.17-6-.32-7.78l1.16 2.48c-.27 1.77-.55 3.52-.84 5.3zM540 520.52c1.7-.49 3.4-1.04 5.08-1.63-1.87 2.7-3.35 5.63-4.96 8.48.06-1.05.19-3.15.26-4.2-1.14.5-2.27.99-3.41 1.46 1.2-.88 2.45-1.71 3.72-2.5-.17-.4-.52-1.21-.69-1.61zm343.08 17.61c1.41-5.21 2.98-10.39 4.95-15.41 5.23 8.94 4.21 21.51 13.28 28.01.65-.75 1.3-1.51 1.96-2.25-.45-1.54-.71-3.11-.87-4.69 2.53-1.47 5.8-2.45 6.52-5.68 5.07 1.82 7.72-3.49 11-6.15 7.24 4.83 12.56 13.93 9.63 22.73-2.64 4.07-8.07 4.81-11.22 8.41.56 2.16 1.07 4.41 2.47 6.23-.94 3.42 1.22 6.42 2.37 9.48 1.52 3.65 2.42 7.85 1.1 11.71-.85 2.55-1.57 5.23-1.03 7.94-9.38 4.5-20.04 4.11-29.92 6.77-.06 2.23 1.03 4.75-.69 6.62 2.33 4.71 2.69 10.02 3.74 15.1-.6 5-2.42 9.76-3.51 14.67-1.12.54-2.19 1.15-3.25 1.79 1.33 7.24-1.89 14.37-.86 21.56.15 3.66 4.48 3.59 7.07 4.41 5.57 2.34 8.89 7.73 12.3 12.43 4.13.03 4.62 4.73 7.29 6.98 2.28-.09 5.07-.92 6.9.97 2.94 2.86 3.29 7.27 3.43 11.15-.32 5.75-1.07 12.25-5.53 16.4-.7 2.65-1.92 5.12-2.57 7.79-2.82 1.42-3.76 5.68-7.49 4.97-.59-5.82 2.96-12.48-1.3-17.55.89-2.86.35-5.83.27-8.74-2.29-.67-5.36-.48-6.68-2.85l.12-2.93c-11-7.6-23.49-12.6-35.76-17.74-4.78-16.18.02-33-.48-49.48 5.65-4.35 1.69-12.35 4.21-18.14-1.06-.42-2.1-.83-3.14-1.22.56-2.58 1.17-5.14 1.47-7.75.8-1.96 1.19-4.07 2.29-5.89 1.16-.91 1.74-4.91-.51-2.95l-1.29 3.04a78.1 78.1 0 0 1-.02-6.67l-.05.01-2.37.16c.35-.4 1.03-1.2 1.37-1.59 1.59.34 3.2.57 4.83.8 1.08-5.37 2.54-10.68 4.73-15.71.98-1.22.41-2.67-.38-3.72.47.07 1.41.23 1.88.31 2.52-4.95 5.4-9.69 8.43-14.34l.42-.38c-1.84-6.17-3.8-12.31-5.11-18.61m16.05 40.52c-.59 3.04-3.62 4.28-5.46 6.44 4.23.15 7.94-2.17 11.34-4.41 1.09 1.44 3.51-1.4 1.48-1.78-.86-1.92-2.44-3.11-4.53-3.34-.56 1.37-1.39 2.55-2.83 3.09zm-417.06-53.26c.74.68 1.16 1.51 1.26 2.5.59 3.82.94 7.67 1.55 11.49-.39-.22-1.16-.65-1.55-.86-.77-4.33-1.09-8.74-1.26-13.13zm19.97 1.15c1.36-.89 2.59 1.44 1.59 2.42-1.36 1-2.74-1.49-1.59-2.42zm78.18-.7c1.35.42 1.23 4.09.08 4.74-.75-1.41-.8-3.32-.08-4.74zm-234.97 3.45c.61.47.61.47 0 0zm194.12 6.45c.09-2.08.16-4.2.94-6.15.28 2.06.41 4.15.52 6.25-.37-.03-1.09-.07-1.46-.1zm-36.98-4.66c1.53-1.53 3.39 2.09 1.46 2.7-1.41.29-2.23-1.68-1.46-2.7zm-13.26.87l.81-.28c0 .76.01 2.28.02 3.04.58-.19 1.75-.56 2.33-.74l-.22 1.21-1.88-.47c.11 2.83 1.98 6.19.07 8.73-.58-3.82-.39-7.7-1.13-11.49zm-164.87 1.11c2.98-1.56.17 3.3 0 0zm368.02.16c.47.59.47.59 0 0z"/><path d="M699.26 535.24c.61.51.61.51 0 0zm-375.14.77c2.35.04 4.69.07 7.04.08-.97.46-1.9.98-2.81 1.54.29 2.66.66 5.31 1.09 7.96-.43 1.25-.86 2.51-1.29 3.77-.55-1.09-.98-2.25-1.38-3.38-.58-.06-1.74-.17-2.32-.23.61-.26 1.83-.78 2.44-1.05.21-2.59.1-5.18-.64-7.67-.54-.07-1.61-.22-2.15-.29l.02-.73zm179.14.36c1.22-.56 2.42 1.45 1.62 2.41-1.22.55-2.43-1.47-1.62-2.41zm306.13 1.83c1.25.73 1.19 1.41-.18 2.01-1.25-.75-1.19-1.42.18-2.01zm-108.27.86c1.58-.34 2.13.3 1.66 1.92-1.6.33-2.16-.31-1.66-1.92zm-315.96 1.25c3.35-.02-1.34 3.03 0 0zm434.47 3.27c1.7-.3 3.58-1.26 5.31-.6.82.8 1.45 1.79 2.12 2.74-2.54-.39-5.32-.52-7.43-2.14zm-280.74.82c.08-.91.79-1.57 1.21-2.32-.06 5.08-1.96 10.45.43 15.29-1.06-.27-2.11-.52-3.15-.75l1.02-.91c.31-3.77.25-7.55.49-11.31zm111.38-1.21c.55.57.55.57 0 0zm-160.14 2.02c3.28.21-1.56 3.03 0 0zm-6.03 2.03c1.89-.78 2.7 3.36.85 3.69-1.51-.37-1.85-2.66-.85-3.69zm306.16-.07c.88-.95 2.9.33 2.25 1.52-.91.89-2.98-.3-2.25-1.52zm-300.41 6.21c-.2-1.19-.73-3.71.81-4.02.42 1.34.31 2.68-.33 4.01l-.48.01zm306.58-3.42c3.01-1.38-.09 3.36 0 0zm-469.26 1.12c.36.01 1.1.05 1.46.07.35 4.34-.11 8.68-.12 13.03l1.67-.1.01.22c-2.82 1.52.43 5.87-2.54 6.75-1.24-1.36-1.36-3.17-1.07-4.89-.59-.11-1.78-.34-2.38-.45.91-.56 1.81-1.13 2.72-1.69.72-4.3.02-8.63.25-12.94zm462.26.1c2.91-1.58.16 3.34 0 0zm-2.11 3.08c.36.47 1.08 1.41 1.44 1.89.96-.77 1.94-1.52 2.93-2.26-.42.6-1.26 1.8-1.68 2.39 1.34.26 2.68.5 4.03.74-1.13 1.49-2.19 3.29-1.12 5.15-.58.26-1.73.77-2.31 1.03.35-.82 1.06-2.45 1.41-3.27-2-1.56-4.41-2.41-6.94-2.24.18-.5.53-1.51.71-2.01.38-.36 1.15-1.06 1.53-1.42zm-607.86 4.18c1.59-1.46 3.2-3.48 5.65-2.95 7 .85 9.64 8.55 10.77 14.51.57 3.39-4.68 3.65-4.7 6.87-.98 7.01-.96 14.12-1.5 21.17-.33 4.68-1.71 9.39-4.76 13.05-4.43 3.82-10.33 6.38-12.7 12.13 3.9.78 7.57 2.37 11.36 3.54.17-1.57.33-3.14.65-4.67a65.43 65.43 0 0 0 1.35-7.73c7.86.88 15.76-.12 23.63.54 6.59.5 13.23 1.68 19.21 4.6 3.03 1.84 6.06-.92 8.79-2.09 13.36 4.96 25.14 14.78 39.81 15.73 4.02-.01 9.37.62 11.71-3.49 2.48-4.71 2.65-10.23 4.68-15.12 1.14-1.76 2.67-3.53 4.97-2.75 3.24 1.88 3.88 5.82 3.64 9.24-.18 7.03-1.77 13.99-1.16 21.05.39 2.03-1.98 2.84-3.39 3.57-5.76 2.09-11.66-1.19-17.52-.86-9.91.15-20.16 1.57-29.67-2.11-2.25-2.14-3.24-6.04-7-5.89-.79 4.18-1.76 8.33-2.52 12.52-4.42.1-8.87-.28-13.27.17-7.49 3.7-10.69 11.99-16.42 17.6-3.72 3.75-9.43 6.06-14.64 4.28-5.12-1.53-10.08-5.51-15.67-3.71-4.57 1.24-6.68 6.04-7.21 10.36-.95 8.01-.58 16.16-2.37 24.09-3.04 1.18-6.96 3.18-9.9.73-1.49-1.45-3.9-3.21-2.91-5.57 2.16-8.1 1.14-17.36 6.39-24.38 3.43-4.88 9.73-5.81 14.59-8.67-5.47-5.82-14.36-4.34-20.47-9.01-6.86-4.79-11.96-11.59-17.21-17.99-.32-5.27-.28-10.74-2.65-15.6-3.88 1.04-.54 4.85-1.15 7.47-.58 2.49-1.76 5.34-4.39 6.24-3.22 1.07-6.51-.84-8.79-2.99-1.84-1.89-4.22-4.21-3.39-7.12.53-3.34 4.54-4.77 4.82-8.22-.68-4.97-3.08-9.77-2.34-14.89.76-5.71 4.35-11.43 10.03-13.27 4.24-1.57 9.28-.16 12.28 3.17 1.96 1.97 2.79 4.67 3.92 7.14 6.04-4.83 6.5-13.45 10.64-19.63 5.36-7.78 12.03-14.53 18.81-21.06m-4.09 13.92c-2.98 6.09-2.63 13.6-6.86 19.12-2.17 1.45-5.44 1.85-6.32 4.68-1.99 5.11-3.01 10.56-5.06 15.67 2.16.01 4.36-.41 5.91-2.05 3.76-3.55 8.39-6.04 11.94-9.83 2.98-3.16 6.61-6.3 7.37-10.81 1.28-6.99.08-14.33 2.59-21.12-3.34.9-7.93.57-9.57 4.34m32.49 51c.43 4.09-1.62 7.84-1.62 11.9 4.63-3.43 10.97-5.71 13.02-11.59-3.79-.29-7.8-2.52-11.4-.31z"/><path d="M510.3 555.57c7.54-.28 15.09-.23 22.63.27 1.24.96 2.66 1.68 4.06 2.41.66-.13 1.98-.38 2.64-.5 2.25.85 4.67.62 7.03.58-1.13 4.72-1.41 9.56-1.1 14.39.97.25 2.89.74 3.86.99-3.32-.24-6.63-.6-9.96-.37-.51.45-1.53 1.35-2.04 1.79.48 2.81 1.59 5.44 3.08 7.87-.3 1.79-.56 3.59-.77 5.4-2.78.63-5.62.79-8.45.78.08.76.26 2.28.34 3.03-.36-.93-.7-1.85-1.04-2.77-4.29.61-11.48-3.26-13.32 2.54-1.22.02-2.45.06-3.66.1.59-.63 1.76-1.88 2.35-2.5-2.84-.51-5.72-.7-8.59-.89l.43-.65.06-.01c3.41-.26 6.77-.93 10.16-1.41 1.58.39 3.19.89 4.86.63 4.34-.54 8.83.11 13.05-1.33-1.01-1.49-2.02-2.97-3.03-4.44 1.32-1.47 2.62-2.96 3.93-4.44-2.59-4.8-8.46-3.17-12.69-5.15a29.345 29.345 0 0 1-12.44-8.92c.55-.43 1.65-1.27 2.2-1.7-.71.1-2.13.29-2.84.38-.26-2.03-.51-4.05-.75-6.08zm-24.19 3.1c3.31.09-1.46 3.03 0 0zm-125.01.56c.51.61.51.61 0 0zm129.71 7.17c-2.38-1.15-1.88-4.08-.32-5.7.19 1.89.27 3.79.32 5.7zm324.27-.81c1.48-.32 2.75-1.15 4.02-1.95 1.25.97 2.69 1.64 4.13 2.34-2.66 1.35-5.47.24-8.15-.39zm-355.87-1.32c.55.59.55.59 0 0zm-97.92.9c.49.62.49.62 0 0zm125.25 6c.11-2.05-1.09-4.72.89-6.18.1 2.04 1.42 4.92-.89 6.18z"/><path d="M548.17 570.12c2.88-1.67.28 3.35 0 0zm263.94-.02c2.85-1.7.3 3.32 0 0zm7.41 2.9c1.34-1.87 3.58-2.45 5.69-3.01-1.5 1.65-3.15 3.64-5.69 3.01zm-492.22-.78c.39-.04 1.17-.13 1.55-.17.06.81.17 2.43.22 3.24 0 .7-.01 2.12-.01 2.83-.03.64-.08 1.91-.11 2.55-1.91-2.39-1.29-5.62-1.65-8.45zm159.85.15c3.29.2-1.6 2.99 0 0zm87.2 1.52c1.57-.43 2.09.19 1.55 1.86-1.57.4-2.09-.22-1.55-1.86zm-29.88 2.14c3.35-.48-.64 3.54-2.22 2.35-.42-1.26 1.3-2 2.22-2.35zm41.78.11c.31.71.31.71 0 0zm80.09-.08c2.96-1.53.05 3.35 0 0zm149.89 2.01c2.86-1.67.27 3.34 0 0zm-394.86 1.84c.28-1.32 1.03-1.55 2.26-.7-.29 1.3-1.04 1.53-2.26.7zm4.06-.78c1.24-.87 1.94-.63 2.13.72-1.25.85-1.96.61-2.13-.72zm-127.11 1.06c1.4-.43 1.96.04 1.67 1.41-1.41.43-1.97-.04-1.67-1.41zm15.05.62c3.12-.42 6.29-.26 9.25.93-2.02.64-4.02 1.29-6 2.01l-.12-1.84c-1 .51-1.99 1.04-2.97 1.58l-.16-2.68zm182.09.43c1.17-.95 1.89-.76 2.15.58-1.18.93-1.9.74-2.15-.58zm8.87-.58c1.24-.17 3-.33 3.59 1.11-1.3.42-2.54.28-3.71-.41l.12-.7zm75.95.4c2.98-1.46.03 3.34 0 0zm30.99.22c.51.56.51.56 0 0zm-284 2.69c.22-1.17.82-2.09 1.79-2.76.12 1.7.17 3.41.17 5.13-1.07-.79-2.19-1.47-3.37-2.04.35-.08 1.06-.25 1.41-.33zm162.99-1.22c.14-.31.41-.92.55-1.23.5.28 1.49.84 1.99 1.12-.64.03-1.9.08-2.54.11zm110.19.39c1.06-.54 2.12-1.07 3.2-1.58-.63 1.08-1.27 2.16-1.91 3.24.07.77.22 2.31.29 3.07.99-.24 1.98-.48 2.99-.69-1.5.98-3.01 1.93-4.49 2.94.36-1.5-.15-2.92-.75-4.26.16-.68.5-2.04.67-2.72zm-16.02 2.76c-.55-1.32 2.2-3.63 2.99-2.09-.35 1.16-1.72 2.5-2.99 2.09z"/><path d="M604.49 582.48c1.77 2.03 3.46 4.14 5.69 5.71-1.93-.73-3.77-1.65-5.6-2.58-.02-.78-.07-2.34-.09-3.13zm12.8.79c.58.55.58.55 0 0zm-97.12.89c2.82-1.74.36 3.32 0 0zm296.49.47c3.66-1.62 7.49-.65 11.1.6-.91 1.66-1.95 3.25-2.86 4.91-2.2.63-4.49.78-6.76.88-.49-2.13-1-4.26-1.48-6.39zm-458.48.87c2.01-.47 4.18-1.02 6.2-.21l-.02.49c-1.56.62-3.25.66-4.89.69-.42-.34-.85-.67-1.29-.97zm186.89 1.37c3.7-.66 7.51-1.31 11.28-.79-.93 4.5-8.25-1.34-9.22 3.58l-2.06-2.79zm11.57.4c5.29-1.94 11.16-1.72 16.67-1.02-1.03.61-1.95 1.65-3.25 1.59-4.47.36-8.99.1-13.42-.57zm22.58-1.04c.61.51.61.51 0 0zm-250.68 3.7c-.83-.76-1.32-2.64.23-2.87-.05.72-.17 2.15-.23 2.87zm122.43-.63c-.38-2.73 3.46-2.03 5.12-1.84 4.69 1.18 9.68-.65 14.2 1.23-4.35 1.28-8.84.15-13.26.5-2.02.08-4.05.4-6.06.11zm19.55-.73c2.86-.77 5.81-.99 8.76-1-.12.63-.24 1.27-.36 1.91-2.83.1-5.69-.02-8.4-.91zm31.52-.3c-.38 2.32-4.84.14-2.6-1.54.65.39 1.95 1.16 2.6 1.54zm-79.44 1.38c1.31-.39 2.66-.72 4-1.07 1.76.24 3.75-.05 5.22 1.21-2.99.74-6.33 1.15-9.22-.14zm19.06-.18c2.53-1.96 6.04-1.14 9-1.21-2.49 2.11-6.03 1.24-9 1.21zm138.27 2.33c.54-.55 1.09-1.09 1.65-1.62.47 2.19.88 4.4 1.2 6.63 1.16.68 2.33 1.39 3.45 2.17-2.73-.64-5.21-2.03-7.14-4.06.27-1.07.6-2.06.84-3.12zm25.74-.45c1.73.03 6.85-.71 4.89 2.32-1.79-.38-3.5-1.13-4.89-2.32zm214.97.93c2.41-1.14.38 4.06-1.58 2.95-1.46-.94 1.14-2.09 1.58-2.95zm-365.62 1.57c1-.42 2.03-.76 3.08-1.08.78.52 1.57 1.04 2.36 1.59l.99.69c-3.14-.12-6.27.24-9.41.18.75-.35 2.23-1.03 2.98-1.38zm368.4-.7c2.89-1.62.22 3.33 0 0zm-399.55 5.53c3.23-.54 6.51-.76 9.71-1.53 1.8.75 3.62 1.46 5.44 2.18-.56.05-1.69.14-2.25.18.27.56.82 1.66 1.1 2.21a272.3 272.3 0 0 0-5.61-.35c.03-.16.08-.47.11-.62 1.65.04 3.3.07 4.96.09l-.85-1.66c-4.14-.97-8.42-.02-12.61-.5zm.58 1.49c1.2-.85 1.92-.6 2.16.76-1.22.82-1.94.57-2.16-.76z"/><path d="M428.91 599.83c1.61-.54 2.22.01 1.83 1.64-1.62.5-2.23-.05-1.83-1.64zm35.49.62c2.62.25 5.26.5 7.84 1.08-2.75.75-6.47-.81-8.21 2.12-1.69-.02-3.37.01-5.05-.03 1.62-.3 3.27-.54 4.91-.82.12-.58.38-1.76.51-2.35zm-24.96.62c1.14-.94 1.83-.73 2.06.65-1.15.93-1.84.72-2.06-.65zm319.21.1l.67-.45c-.41 1.65-1.03 3.25-1.84 4.75-.31.17-.93.51-1.25.68-.1.42-.31 1.26-.42 1.68-.96.77-1.95 1.49-2.94 2.21.33-1.96.7-3.91 1.08-5.86 1.59-.97 3.16-1.96 4.7-3.01zm59.93.38c2.8-.76 5.72-.57 8.58-.22-2.02 1.76-5.89-.32-6.58 2.92 2.41-.31 4.71-1.23 6.7-2.64.64.36 1.91 1.07 2.55 1.42-3.65 4.09-9.13 1.85-13.52.56-.73.05-2.17.16-2.9.21 1.09-1.82 3.36-1.71 5.17-2.25zm-214.33 1.51c2.94-1.54.15 3.34 0 0zm6.97 2.02c2.94-1.57.14 3.33 0 0zm22.17 1.74c4.22.31 8.18 1.94 12.31 2.77 1.48.2 2.59 1.21 3.56 2.29-3.37-.5-7.19.17-10.08-1.94-1.77-1.39-4.42-1.2-5.79-3.12z"/></g></svg>